<svg width="516" height="516" viewBox="0 0 516 516" fill="none" xmlns="http://www.w3.org/2000/svg">
<circle cx="258" cy="258" r="258" fill="url(#paint0_radial_11_479)"/>
<g clip-path="url(#clip0_11_479)">
<path d="M210.126 344.915H30.8461C30.3567 344.915 29.8874 344.72 29.5413 344.373C29.1952 344.026 29.0005 343.556 29 343.066V167.995C29.0005 167.505 29.1952 167.035 29.5413 166.688C29.8874 166.342 30.3567 166.147 30.8461 166.146H210.126C210.616 166.147 211.085 166.342 211.431 166.688C211.777 167.035 211.972 167.505 211.972 167.995V343.066C211.972 343.556 211.777 344.026 211.431 344.373C211.085 344.72 210.616 344.915 210.126 344.915Z" fill="#F0F0F0"/>
<path d="M190.639 182.174H50.3331C49.8437 182.174 49.3745 182.369 49.0285 182.716C48.6824 183.063 48.4877 183.533 48.4869 184.023V292.928C48.4877 293.419 48.6824 293.889 49.0285 294.235C49.3745 294.582 49.8437 294.777 50.3331 294.778H190.639C191.129 294.777 191.598 294.582 191.944 294.235C192.29 293.889 192.485 293.419 192.485 292.928V184.023C192.485 183.533 192.29 183.063 191.944 182.716C191.598 182.369 191.129 182.174 190.639 182.174Z" fill="white"/>
<path d="M182.639 316.148H58.333C58.0611 316.148 57.8004 316.039 57.6081 315.847C57.4159 315.654 57.3077 315.393 57.3074 315.12V309.367C57.3077 309.095 57.4159 308.833 57.6081 308.641C57.8004 308.448 58.0611 308.34 58.333 308.34H182.639C182.911 308.34 183.172 308.448 183.364 308.641C183.556 308.833 183.665 309.095 183.665 309.367V315.12C183.665 315.393 183.556 315.654 183.364 315.847C183.172 316.039 182.911 316.148 182.639 316.148Z" fill="white"/>
<path d="M139.563 330.121H58.333C58.0611 330.12 57.8004 330.012 57.6081 329.819C57.4159 329.627 57.3077 329.366 57.3074 329.093V323.34C57.3077 323.067 57.4159 322.806 57.6081 322.614C57.8004 322.421 58.0611 322.313 58.333 322.312H139.563C139.835 322.313 140.095 322.421 140.288 322.614C140.48 322.806 140.588 323.067 140.588 323.34V329.093C140.588 329.366 140.48 329.627 140.288 329.819C140.095 330.012 139.835 330.12 139.563 330.121Z" fill="white"/>
<path d="M117.02 255.97C126.872 255.97 134.859 247.969 134.859 238.1C134.859 228.23 126.872 220.229 117.02 220.229C107.168 220.229 99.1806 228.23 99.1806 238.1C99.1806 247.969 107.168 255.97 117.02 255.97Z" fill="#FFB8B8"/>
<path d="M143.12 294.778H103.567L104.86 265.648L105.168 265.324L109.606 260.627H123.731L128.966 265.706L129.389 266.117L140.535 276.819L143.12 294.778Z" fill="#B48CBE"/>
<path d="M110.369 294.778H80.4455C80.3718 288.202 80.3307 284.265 80.3307 284.265L82.0619 283.209C82.064 283.207 82.067 283.205 82.0701 283.205H82.0743L101.143 271.608L105.147 265.094L105.167 265.324L106.345 279.054C106.345 279.054 108.289 285.35 110.369 294.778Z" fill="#2F2E41"/>
<path d="M160.662 294.778H128.966C129.446 275.602 126.861 265.094 128.191 265.094L128.966 265.706L138.307 273.095L150.619 277.62H150.627L159.116 280.739L160.605 281.286V281.989C160.609 283.674 160.617 288.28 160.662 294.778Z" fill="#2F2E41"/>
<path d="M100.143 243.691C100.143 243.691 101.659 241.024 101.306 232.117C100.954 223.209 114.494 228.247 125.809 227.397C137.124 226.548 134.729 242.269 134.729 242.269C134.729 242.269 135.545 241.334 137.292 233.747C139.04 226.159 135.072 218.598 135.072 218.598C133.903 210.625 127.605 213.18 127.605 213.18C130.638 214.363 130.056 216.892 130.056 216.892C127.488 212.383 121.19 214.938 121.19 214.938C112.79 209.658 104.277 216.612 104.277 216.612C94.1288 218.919 100.08 227.003 100.08 227.003C89.8748 232.169 100.143 243.691 100.143 243.691Z" fill="#2F2E41"/>
<path d="M84.4415 294.778H72.1461C72.242 293.26 72.2448 291.738 72.1543 290.22C71.42 287.29 81.7502 283.328 82.0619 283.209C82.064 283.207 82.0669 283.205 82.0701 283.205H82.0743L84.0434 284.265L84.4415 294.778Z" fill="#2F2E41"/>
<path d="M162.882 294.778H149.967L148.355 278.832L150.164 277.509C150.164 277.509 150.328 277.546 150.619 277.62H150.627C152.076 277.978 156.555 279.161 159.116 280.739C159.685 281.059 160.19 281.483 160.605 281.989C160.859 282.294 160.985 282.685 160.957 283.082C160.892 283.678 161.647 288.067 162.882 294.778Z" fill="#2F2E41"/>
<path d="M486.154 292.769H306.874C306.384 292.769 305.915 292.574 305.569 292.227C305.223 291.88 305.028 291.41 305.028 290.92V115.849C305.028 115.359 305.223 114.889 305.569 114.542C305.915 114.196 306.384 114.001 306.874 114H486.154C486.643 114.001 487.113 114.196 487.459 114.542C487.805 114.889 487.999 115.359 488 115.849V290.92C487.999 291.41 487.805 291.88 487.459 292.227C487.113 292.574 486.643 292.769 486.154 292.769Z" fill="#F0F0F0"/>
<path d="M466.667 130.028H326.361C325.872 130.029 325.402 130.224 325.056 130.57C324.71 130.917 324.516 131.387 324.515 131.877V240.783C324.516 241.273 324.71 241.743 325.056 242.09C325.402 242.436 325.872 242.631 326.361 242.632H466.667C467.156 242.631 467.626 242.436 467.972 242.09C468.318 241.743 468.512 241.273 468.513 240.783V131.877C468.512 131.387 468.318 130.917 467.972 130.57C467.626 130.224 467.156 130.029 466.667 130.028Z" fill="white"/>
<path d="M458.667 264.002H334.361C334.089 264.002 333.828 263.893 333.636 263.701C333.444 263.508 333.335 263.247 333.335 262.975V257.221C333.335 256.949 333.444 256.687 333.636 256.495C333.828 256.302 334.089 256.194 334.361 256.194H458.667C458.939 256.194 459.2 256.302 459.392 256.495C459.584 256.687 459.692 256.949 459.693 257.221V262.975C459.692 263.247 459.584 263.508 459.392 263.701C459.2 263.893 458.939 264.002 458.667 264.002Z" fill="white"/>
<path d="M415.591 277.975H334.361C334.089 277.974 333.828 277.866 333.636 277.673C333.444 277.481 333.335 277.22 333.335 276.947V271.194C333.335 270.921 333.444 270.66 333.636 270.468C333.828 270.275 334.089 270.167 334.361 270.166H415.591C415.863 270.167 416.123 270.275 416.315 270.468C416.508 270.66 416.616 270.921 416.616 271.194V276.947C416.616 277.22 416.508 277.481 416.315 277.673C416.123 277.866 415.863 277.974 415.591 277.975Z" fill="white"/>
<path d="M431.049 242.632C431.841 239.776 432.456 237.314 432.772 235.572C432.87 235.035 432.879 234.485 432.801 233.944C431.619 225.524 410.278 218.406 407.542 217.526L406.881 210.195L380.018 207.297L376.617 216.676L366.976 220.296C366.627 220.425 366.295 220.597 365.987 220.806C365.179 221.353 364.557 222.135 364.205 223.047C363.854 223.959 363.79 224.957 364.022 225.906L368.129 242.632L431.049 242.632Z" fill="#B48CBE"/>
<path d="M375.361 242.632H354.516C355.263 237.972 355.932 233.85 356.367 231.228C357.959 221.685 364.9 220.872 365.987 220.806C366.073 220.798 366.127 220.798 366.131 220.798H370.516L375.361 242.632Z" fill="#B48CBE"/>
<path d="M431.049 242.632H436.103C435.656 238.518 434.237 235.748 432.801 233.944C431.842 232.676 430.606 231.645 429.186 230.932L428.805 230.768L424.362 242.632H431.049Z" fill="#B48CBE"/>
<path d="M392.4 202.657C403.082 202.657 411.742 193.982 411.742 183.281C411.742 172.581 403.082 163.906 392.4 163.906C381.718 163.906 373.058 172.581 373.058 183.281C373.058 193.982 381.718 202.657 392.4 202.657Z" fill="#A0616A"/>
<path d="M379.417 173.842C381.42 176.215 384.808 176.885 387.933 177.157C394.282 177.715 403.512 176.81 409.716 175.376C410.161 179.674 408.952 184.31 411.479 187.846C412.664 183.565 413.353 179.161 413.532 174.722C413.608 172.818 413.579 170.849 412.806 169.101C412.034 167.354 410.35 165.87 408.41 165.855C409.851 164.76 411.539 164.037 413.325 163.751L407.184 160.659L408.761 159.037L397.642 158.355L400.863 156.306C396.014 155.639 391.109 155.485 386.228 155.845C383.962 156.012 381.593 156.332 379.757 157.647C377.922 158.962 376.861 161.576 378.001 163.506C376.574 163.741 375.23 164.337 374.098 165.237C372.965 166.137 372.081 167.313 371.528 168.651C370.71 170.73 370.785 173.038 371.037 175.253C371.456 178.796 372.277 182.278 373.486 185.634" fill="#2F2E41"/>
<path d="M351.551 403H172.271C171.782 403 171.312 402.804 170.966 402.458C170.62 402.111 170.425 401.641 170.425 401.151V226.08C170.425 225.59 170.62 225.12 170.966 224.773C171.312 224.426 171.782 224.231 172.271 224.231H351.551C352.041 224.231 352.51 224.426 352.856 224.773C353.202 225.12 353.397 225.59 353.397 226.08V401.151C353.397 401.641 353.202 402.111 352.856 402.458C352.51 402.804 352.041 403 351.551 403Z" fill="#E4E4E4"/>
<path d="M332.064 240.259H191.758C191.269 240.259 190.8 240.454 190.454 240.801C190.107 241.148 189.913 241.618 189.912 242.108V351.013C189.913 351.504 190.107 351.974 190.454 352.32C190.8 352.667 191.269 352.862 191.758 352.863H332.064C332.554 352.862 333.023 352.667 333.369 352.32C333.715 351.974 333.91 351.504 333.91 351.013V242.108C333.91 241.618 333.715 241.148 333.369 240.801C333.023 240.454 332.554 240.259 332.064 240.259Z" fill="white"/>
<path d="M324.064 374.233H199.758C199.486 374.232 199.225 374.124 199.033 373.931C198.841 373.739 198.733 373.478 198.732 373.205V367.452C198.733 367.179 198.841 366.918 199.033 366.725C199.225 366.533 199.486 366.425 199.758 366.424H324.064C324.336 366.425 324.597 366.533 324.789 366.725C324.981 366.918 325.089 367.179 325.09 367.452V373.205C325.089 373.478 324.981 373.739 324.789 373.931C324.597 374.124 324.336 374.232 324.064 374.233Z" fill="white"/>
<path d="M280.988 388.205H199.758C199.486 388.205 199.225 388.097 199.033 387.904C198.841 387.711 198.733 387.45 198.732 387.178V381.424C198.733 381.152 198.841 380.891 199.033 380.698C199.225 380.506 199.486 380.397 199.758 380.397H280.988C281.26 380.397 281.52 380.506 281.713 380.698C281.905 380.891 282.013 381.152 282.013 381.424V387.178C282.013 387.45 281.905 387.711 281.713 387.904C281.52 388.097 281.26 388.205 280.988 388.205Z" fill="white"/>
<path d="M275.716 352.863H247.479L249.238 326.405L259.425 328.76L269.333 324.942L269.595 324.843L269.612 324.835C269.615 324.843 269.618 324.851 269.62 324.86C269.776 325.488 272.885 337.961 275.716 352.863Z" fill="#B48CBE"/>
<path d="M292.734 330.724L290.095 352.862H266.297L269.333 324.942L269.361 324.671L269.595 324.843L269.62 324.859L275.49 329.15L292.734 330.724Z" fill="#2F2E41"/>
<path d="M251.655 352.863H230.342L230.035 335.434L245.719 330.223L249.238 326.405C249.238 326.405 250.35 337.891 251.655 352.863Z" fill="#2F2E41"/>
<path d="M302.994 352.863H285.332L286.465 337.004L292.733 330.724C292.733 330.724 297.693 341.146 302.994 352.863Z" fill="#2F2E41"/>
<path d="M235.368 352.863H226.051C226.092 347.783 226.117 344.274 226.117 343.283C226.07 341.752 226.404 340.233 227.087 338.863C227.771 337.493 228.784 336.315 230.035 335.434L234.74 337.004L235.368 352.863Z" fill="#2F2E41"/>
<path d="M233.914 299.17C233.929 294.867 235.058 290.64 237.192 286.905C239.326 283.17 242.391 280.053 246.088 277.861C253.941 273.216 263.417 273.3 272.084 278.09C278.259 281.504 283.283 290.092 283.283 297.235V318.079H233.914V299.17Z" fill="#2F2E41"/>
<path d="M266.174 315.377C274.816 310.645 277.991 299.791 273.268 291.135C268.544 282.479 257.709 279.297 249.068 284.029C240.427 288.761 237.251 299.615 241.975 308.271C246.699 316.927 257.533 320.108 266.174 315.377Z" fill="#FFB8B8"/>
<path d="M239.026 299.872C238.891 299.716 238.575 299.349 240.774 282.396L240.844 282.119H241.043C252.192 276.624 263.503 276.486 274.665 281.706C275.009 281.869 275.304 282.119 275.522 282.431C275.741 282.743 275.874 283.107 275.91 283.486C277.213 299.415 276.898 299.762 276.763 299.911C276.559 300.135 276.31 300.315 276.033 300.438C275.755 300.561 275.455 300.624 275.151 300.625H270.206L270.102 300.438C269.253 298.857 268.321 297.322 267.311 295.839C266.847 297.315 266.466 298.816 266.172 300.335L266.111 300.625H240.672C240.36 300.625 240.051 300.558 239.767 300.428C239.483 300.298 239.23 300.108 239.026 299.872Z" fill="#2F2E41"/>
</g>
<defs>
<radialGradient id="paint0_radial_11_479" cx="0" cy="0" r="1" gradientUnits="userSpaceOnUse" gradientTransform="translate(258 258) rotate(90) scale(258)">
<stop stop-color="#F7E3FF"/>
<stop offset="1" stop-color="#F9F9F9"/>
</radialGradient>
<clipPath id="clip0_11_479">
<rect width="459" height="289" fill="white" transform="translate(29 114)"/>
</clipPath>
</defs>
</svg>
