<svg width="112" height="103" viewBox="0 0 112 103" fill="none" xmlns="http://www.w3.org/2000/svg">
<path d="M94.9104 42.2622C91.3639 91.9001 110.515 120.272 46.6774 90.4953C-32.056 103.249 12.6305 68.9006 12.6305 42.2622C12.6305 15.6239 37.0624 2.5409 63.7008 2.5409C104.131 -8.80737 109.097 20.259 94.9104 42.2622Z" fill="#F2D2FF"/>
<path d="M80.1568 91.8992V13.7175C80.1568 11.1257 79.1404 8.63992 77.3313 6.80718C75.5223 4.97445 73.0686 3.94482 70.5102 3.94482H51.2169C48.6585 3.94482 46.2048 4.97445 44.3958 6.80718C42.5867 8.63992 41.5703 11.1257 41.5703 13.7175V91.8992M22.2771 23.4902H99.45C104.778 23.4902 109.097 27.8656 109.097 33.263V82.1265C109.097 87.5238 104.778 91.8992 99.45 91.8992H22.2771C16.9494 91.8992 12.6305 87.5238 12.6305 82.1265V33.263C12.6305 27.8656 16.9494 23.4902 22.2771 23.4902Z" stroke="#17124A" stroke-width="5" stroke-linecap="round" stroke-linejoin="round"/>
</svg>
