<svg width="516" height="516" viewBox="0 0 516 516" fill="none" xmlns="http://www.w3.org/2000/svg">
<circle cx="258" cy="258" r="258" fill="url(#paint0_radial_12_547)"/>
<g clip-path="url(#clip0_12_547)">
<path d="M315.429 121.955C311.273 130.557 303.625 136.961 295.614 142.173C287.116 147.683 277.98 152.143 268.407 155.455C267.09 155.916 265.759 156.357 264.428 156.771H207.459C207.09 156.35 206.734 155.909 206.392 155.455C202.815 150.73 200.898 144.747 201.616 138.883C202.558 131.195 208.401 124.127 215.983 122.488C223.566 120.856 232.208 125.377 234.508 132.775C235.779 118.513 237.241 103.651 244.83 91.5017C251.701 80.5038 263.612 72.6322 276.51 71.2237C284.097 70.4343 291.751 71.8344 298.565 75.2582C299.191 75.5741 299.81 75.9032 300.416 76.2455C304.506 78.5622 308.115 81.6383 311.049 85.3083C319.092 95.4835 321.062 110.272 315.429 121.955Z" fill="#F2F2F2"/>
<path d="M300.416 76.2456C300.432 76.4183 300.403 76.5922 300.332 76.7503C300.26 76.9084 300.149 77.0452 300.008 77.1473C274.207 98.139 253.8 124.987 240.489 155.455C240.291 155.89 240.101 156.331 239.916 156.772H237.294C237.479 156.331 237.663 155.89 237.854 155.455C240.351 149.637 243.111 143.937 246.135 138.356C252.679 126.306 260.378 114.919 269.125 104.356C277.871 93.7793 287.639 84.0904 298.289 75.4295C298.373 75.3608 298.466 75.3033 298.565 75.2584C298.751 75.1787 298.951 75.1417 299.153 75.1501C299.354 75.1585 299.551 75.2121 299.729 75.307C299.907 75.4018 300.061 75.5354 300.18 75.6979C300.299 75.8604 300.38 76.0476 300.416 76.2456Z" fill="white"/>
<path d="M301.504 155.455H50.5164C48.3546 155.453 46.2294 156.013 44.3502 157.081C43.9001 157.336 43.4667 157.62 43.0526 157.93C41.4847 159.091 40.211 160.604 39.3336 162.345C38.4561 164.087 37.9994 166.01 38 167.96V298.276C38.003 301.592 39.3226 304.771 41.6692 307.115C44.0159 309.46 47.1978 310.778 50.5164 310.781H301.504C304.822 310.778 308.004 309.46 310.351 307.115C312.697 304.771 314.017 301.592 314.02 298.276V167.96C314.017 164.645 312.697 161.466 310.351 159.121C308.004 156.777 304.822 155.458 301.504 155.455ZM312.702 298.276C312.698 301.242 311.517 304.086 309.418 306.183C307.318 308.281 304.472 309.461 301.504 309.465H50.5164C47.5476 309.461 44.7015 308.281 42.6022 306.183C40.503 304.086 39.3217 301.242 39.3175 298.276V167.96C39.3269 165.596 40.0817 163.294 41.4747 161.383C42.8677 159.471 44.8281 158.047 47.0776 157.311C47.1699 157.285 47.2554 157.252 47.3478 157.226C48.3768 156.924 49.4439 156.771 50.5164 156.772H301.504C304.472 156.776 307.318 157.956 309.418 160.053C311.517 162.151 312.698 164.994 312.702 167.96V298.276Z" fill="#3F3D56"/>
<path d="M391.897 325.44C392.764 324.876 393.496 324.128 394.043 323.25C394.589 322.373 394.936 321.386 395.06 320.36C395.183 319.333 395.08 318.293 394.757 317.31C394.434 316.328 393.899 315.429 393.191 314.676L397.125 267.808L385.857 269.046L382.77 314.662C381.582 315.935 380.903 317.599 380.861 319.338C380.819 321.078 381.417 322.773 382.542 324.101C383.667 325.43 385.241 326.3 386.965 326.547C388.689 326.793 390.444 326.4 391.897 325.44Z" fill="#FFB8B8"/>
<path d="M351.791 437.229L343.715 437.228L339.873 406.105L351.793 406.106L351.791 437.229Z" fill="#FFB8B8"/>
<path d="M337.946 434.923H353.522V444.721H328.139C328.139 443.434 328.393 442.16 328.886 440.971C329.379 439.783 330.101 438.702 331.012 437.793C331.922 436.883 333.003 436.161 334.193 435.669C335.383 435.176 336.658 434.923 337.946 434.923Z" fill="#2F2E41"/>
<path d="M409.103 437.229L401.027 437.228L397.185 406.105L409.105 406.106L409.103 437.229Z" fill="#FFB8B8"/>
<path d="M395.258 434.923H410.834V444.721H385.451C385.451 442.122 386.485 439.63 388.324 437.793C390.163 435.955 392.657 434.923 395.258 434.923Z" fill="#2F2E41"/>
<path d="M351.927 417.953C351.84 417.953 351.752 417.949 351.663 417.942L340.233 417.028C339.779 416.992 339.338 416.862 338.938 416.647C338.537 416.432 338.185 416.137 337.904 415.779C337.623 415.422 337.419 415.01 337.306 414.57C337.192 414.13 337.171 413.671 337.244 413.222L354.574 306.127L355.735 291.021C355.787 290.315 356.066 289.644 356.531 289.11C356.996 288.576 357.622 288.207 358.315 288.059L375.747 284.249C376.388 284.106 377.057 284.159 377.667 284.401C378.277 284.643 378.801 285.062 379.169 285.605L383.42 291.812C385.089 294.225 386.903 296.535 388.851 298.729C391.867 302.16 396.994 309.779 397.454 322.248C397.578 326.344 398.004 330.426 398.728 334.46L412.762 409.991C412.833 410.433 412.813 410.886 412.702 411.321C412.592 411.756 412.394 412.163 412.12 412.518C411.846 412.874 411.502 413.169 411.11 413.387C410.717 413.605 410.284 413.74 409.838 413.785L399.002 414.605C398.227 414.681 397.45 414.48 396.81 414.036C396.17 413.592 395.709 412.935 395.509 412.183L376.289 340.772C376.251 340.632 376.168 340.508 376.053 340.42C375.938 340.332 375.797 340.284 375.652 340.285C375.507 340.285 375.366 340.333 375.251 340.421C375.136 340.51 375.054 340.634 375.016 340.774L355.109 415.509C354.922 416.209 354.509 416.828 353.933 417.27C353.358 417.712 352.653 417.952 351.927 417.953Z" fill="#2F2E41"/>
<path d="M382.325 235.714C391.26 235.714 398.504 228.477 398.504 219.549C398.504 210.621 391.26 203.384 382.325 203.384C373.389 203.384 366.145 210.621 366.145 219.549C366.145 228.477 373.389 235.714 382.325 235.714Z" fill="#FFB8B8"/>
<path d="M354.901 293.451L354.566 270.367C353.334 255.602 359.878 247.85 365.586 243.951C367.057 242.958 368.716 242.275 370.46 241.941C372.204 241.607 373.998 241.631 375.733 242.011L388.466 244.761C390.239 245.147 391.916 245.888 393.394 246.94C394.872 247.991 396.121 249.332 397.066 250.88C397.97 252.34 398.563 253.971 398.81 255.67C399.056 257.369 398.949 259.101 398.497 260.757C397.613 263.858 395.651 266.542 392.964 268.327C382.023 276.044 381.252 289.006 381.245 289.137L381.232 289.405L354.901 293.451Z" fill="#B48CBE"/>
<path d="M394.75 276.286H383.551C382.765 276.285 382.012 275.972 381.456 275.417C380.9 274.862 380.588 274.109 380.587 273.324V253.908C380.587 251.639 381.489 249.463 383.095 247.858C384.701 246.253 386.88 245.352 389.151 245.352C391.422 245.352 393.6 246.253 395.206 247.858C396.812 249.463 397.715 251.639 397.715 253.908V273.324C397.714 274.109 397.401 274.862 396.845 275.417C396.29 275.972 395.536 276.285 394.75 276.286Z" fill="#B48CBE"/>
<path d="M319.561 279.953C318.901 280.74 318.082 281.378 317.158 281.826C316.233 282.273 315.224 282.52 314.198 282.55C313.171 282.58 312.149 282.391 311.201 281.998C310.252 281.605 309.397 281.015 308.693 280.268C302.312 273.581 312.743 263.542 319.149 270.242C319.374 270.473 319.584 270.72 319.776 270.98L352.074 270.177L355.929 263.133L367.776 267.729C365.502 271.253 362.89 285.085 356.941 284.411C356.161 284.432 320.358 280.01 319.561 279.953Z" fill="#FFB8B8"/>
<path d="M362.767 274.623L353.738 268.004C353.105 267.538 352.683 266.841 352.563 266.065C352.444 265.289 352.638 264.497 353.102 263.864L364.6 248.211C365.265 247.305 366.103 246.539 367.065 245.956C368.026 245.374 369.093 244.986 370.205 244.816C371.317 244.645 372.451 244.695 373.543 244.963C374.635 245.23 375.664 245.71 376.571 246.375C377.478 247.04 378.244 247.876 378.827 248.837C379.41 249.798 379.798 250.864 379.969 251.975C380.14 253.085 380.09 254.219 379.822 255.31C379.554 256.401 379.074 257.429 378.408 258.335L366.911 273.988C366.445 274.62 365.747 275.043 364.97 275.162C364.193 275.281 363.401 275.087 362.767 274.623Z" fill="#B48CBE"/>
<path d="M385.565 227.951C386.087 226.863 386.269 225.642 386.085 224.45C385.902 223.257 385.362 222.147 384.538 221.265C381.494 218.199 376.738 220.244 372.624 219.944C365.772 219.444 361.106 211.28 363.151 204.727C365.197 198.175 372.468 194.108 379.324 194.54C386.181 194.971 392.389 199.208 396.521 204.692C399.35 200.143 406.3 199.613 410.785 202.545C415.27 205.477 417.59 210.835 418.549 216.104C419.508 221.372 419.352 226.786 420.159 232.08C422.117 244.913 430.406 256.996 442.401 261.984C454.396 266.972 469.745 263.767 477.592 253.421C479.118 265.958 476.441 278.647 469.98 289.502C463.52 300.357 453.64 308.767 441.886 313.415C435.386 315.985 428.208 317.35 421.366 315.921C410.318 313.615 401.725 304.176 397.981 293.539C394.236 282.902 394.684 271.231 396.503 260.103C397.623 253.248 398.864 245.131 393.86 240.31C392.456 239.142 390.803 238.309 389.028 237.876C388.087 237.593 387.223 237.1 386.501 236.433C385.78 235.766 385.22 234.944 384.865 234.028C384.51 233.113 384.369 232.128 384.452 231.15C384.536 230.171 384.841 229.225 385.346 228.383C385.428 228.239 385.501 228.096 385.565 227.951Z" fill="#2F2E41"/>
<path d="M443.65 445H293.453C293.278 445 293.111 444.931 292.987 444.807C292.864 444.684 292.794 444.516 292.794 444.342C292.794 444.167 292.864 444 292.987 443.876C293.111 443.753 293.278 443.684 293.453 443.684H443.65C443.825 443.684 443.992 443.753 444.116 443.876C444.239 444 444.309 444.167 444.309 444.342C444.309 444.516 444.239 444.684 444.116 444.807C443.992 444.931 443.825 445 443.65 445Z" fill="#3F3D56"/>
<path d="M175.736 233.063C174.736 233.062 173.753 232.809 172.877 232.327L41.7558 160.223C41.6028 160.139 41.4895 159.998 41.4408 159.83C41.3922 159.662 41.4122 159.482 41.4964 159.329C41.5806 159.176 41.7222 159.063 41.89 159.015C42.0578 158.966 42.238 158.986 42.3911 159.07L173.513 231.173C174.181 231.542 174.931 231.739 175.695 231.746C176.459 231.752 177.213 231.569 177.888 231.212L311.167 160.967C311.244 160.926 311.328 160.901 311.414 160.893C311.5 160.885 311.587 160.894 311.67 160.919C311.753 160.945 311.83 160.986 311.896 161.042C311.963 161.097 312.018 161.165 312.059 161.241C312.099 161.318 312.124 161.401 312.132 161.488C312.14 161.574 312.131 161.661 312.105 161.743C312.079 161.826 312.038 161.903 311.982 161.969C311.927 162.036 311.859 162.091 311.782 162.131L178.502 232.376C177.65 232.827 176.7 233.062 175.736 233.063Z" fill="#3F3D56"/>
<path d="M79.8751 277.873H61.4298C60.0321 277.873 58.6917 277.318 57.7033 276.331C56.715 275.344 56.1598 274.004 56.1598 272.608C56.1598 271.211 56.715 269.872 57.7033 268.885C58.6917 267.897 60.0321 267.343 61.4298 267.343H79.8751C81.2728 267.343 82.6133 267.897 83.6016 268.885C84.5899 269.872 85.1452 271.211 85.1452 272.608C85.1452 274.004 84.5899 275.344 83.6016 276.331C82.6133 277.318 81.2728 277.873 79.8751 277.873Z" fill="#3F3D56"/>
<path d="M101.614 295.643H61.4298C60.0321 295.643 58.6917 295.089 57.7033 294.101C56.715 293.114 56.1598 291.775 56.1598 290.378C56.1598 288.982 56.715 287.642 57.7033 286.655C58.6917 285.668 60.0321 285.113 61.4298 285.113H101.614C103.012 285.113 104.352 285.668 105.341 286.655C106.329 287.642 106.884 288.982 106.884 290.378C106.884 291.775 106.329 293.114 105.341 294.101C104.352 295.089 103.012 295.643 101.614 295.643Z" fill="#3F3D56"/>
<path d="M175.683 254.179C187.325 254.179 196.763 244.75 196.763 233.118C196.763 221.486 187.325 212.057 175.683 212.057C164.041 212.057 154.603 221.486 154.603 233.118C154.603 244.75 164.041 254.179 175.683 254.179Z" fill="#B48CBE"/>
</g>
<defs>
<radialGradient id="paint0_radial_12_547" cx="0" cy="0" r="1" gradientUnits="userSpaceOnUse" gradientTransform="translate(258 258) rotate(90) scale(258)">
<stop stop-color="#F7E3FF"/>
<stop offset="1" stop-color="#F9F9F9"/>
</radialGradient>
<clipPath id="clip0_12_547">
<rect width="440" height="374" fill="white" transform="translate(38 71)"/>
</clipPath>
</defs>
</svg>
