<svg width="516" height="516" viewBox="0 0 516 516" fill="none" xmlns="http://www.w3.org/2000/svg">
<circle cx="258" cy="258" r="258" fill="url(#paint0_radial_15_2329)"/>
<g clip-path="url(#clip0_15_2329)">
<path d="M111.601 285.35C110.692 284.459 109.579 283.805 108.359 283.446L99.4306 273.692L94.7217 278.214L104.292 287.624C104.699 288.825 105.398 289.905 106.325 290.768C108.616 292.961 111.652 293.526 113.109 292.028C114.566 290.53 113.896 287.543 111.612 285.354H111.604L111.601 285.35Z" fill="#9F616A"/>
<path d="M107.879 280.96L103.135 286.933L78.6195 268.342L78.5983 268.3L64.2721 241.518C63.682 240.412 63.3243 239.196 63.2211 237.946C63.1179 236.696 63.2714 235.438 63.6721 234.249C64.0728 233.061 64.7122 231.967 65.5509 231.036C66.3896 230.104 67.4098 229.355 68.5487 228.834C69.6875 228.312 70.9209 228.03 72.1728 228.005C73.4247 227.979 74.6685 228.211 75.8276 228.685C76.9868 229.159 78.0366 229.867 78.9125 230.763C79.7883 231.66 80.4717 232.726 80.9203 233.897L90.2159 258.271L107.88 280.951L107.879 280.96Z" fill="#D6D6E3"/>
<path d="M67.508 219.009H77.5026V234.894L66.4829 231.265L67.508 219.009Z" fill="#9F616A"/>
<path d="M87.1157 212.405C87.1157 214.58 86.4721 216.705 85.2663 218.513C84.0604 220.321 82.3465 221.73 80.3412 222.562C78.3359 223.394 76.1294 223.612 74.0007 223.188C71.8719 222.764 69.9165 221.717 68.3817 220.179C66.847 218.642 65.8018 216.683 65.3783 214.55C64.9549 212.417 65.1722 210.207 66.0028 208.198C66.8335 206.189 68.24 204.472 70.0447 203.264C71.8494 202.056 73.9711 201.411 76.1416 201.411C79.0521 201.411 81.8434 202.57 83.9015 204.631C85.9595 206.693 87.1157 209.49 87.1157 212.405Z" fill="#9F616A"/>
<path d="M68.3719 219.438L67.3006 221.474L62.5743 212.476C59.7285 203.744 69.6676 198.73 69.6676 198.73C72.9099 194.904 79.4289 199.379 79.4289 199.379C88.8305 197.288 84.2924 205.225 84.2924 205.225C84.2924 205.225 81.0844 205.297 81.0844 207.893C81.0844 210.489 77.5926 210.311 77.5926 210.311L74.8566 215.11L73.3445 213.269C67.724 210.884 68.3719 219.438 68.3719 219.438Z" fill="#2F2E43"/>
<path d="M72.3268 381.767H63.459V394.371H72.3268V381.767Z" fill="#9F616A"/>
<path d="M80.962 401.999C77.07 401.999 71.3871 401.592 71.3447 401.588C69.8246 401.723 62.2356 402.322 61.8583 400.582C61.6592 399.414 61.7404 398.215 62.0953 397.084C62.8279 389.817 63.0992 389.732 63.26 389.685C63.5182 389.609 64.272 389.969 65.496 390.758L65.5721 390.809L65.5889 390.898C65.6101 391.009 66.1501 393.677 68.7228 393.272C70.4842 392.992 71.056 392.601 71.2381 392.41C71.0489 392.327 70.8873 392.192 70.7723 392.02C70.6752 391.849 70.6162 391.658 70.5994 391.462C70.5826 391.266 70.6084 391.068 70.675 390.883C71.0332 389.82 71.4897 388.793 72.0387 387.816L72.1528 387.612L82.2315 394.426L88.4569 396.208C88.6879 396.273 88.9011 396.39 89.0808 396.55C89.2605 396.709 89.4019 396.907 89.4944 397.129C89.6229 397.437 89.6527 397.776 89.5799 398.102C89.5071 398.427 89.3351 398.722 89.0878 398.945C87.9574 399.963 85.7084 401.707 83.3514 401.923C82.7248 401.986 81.8948 402.004 80.9627 402.004L80.962 401.999Z" fill="#2F2E43"/>
<path d="M36.6614 372.588L43.4985 378.247L51.513 368.529L44.6759 362.87L36.6614 372.588Z" fill="#9F616A"/>
<path d="M45.2874 389.624C42.2889 387.138 38.1686 383.196 38.1387 383.167C36.881 382.305 30.6513 377.919 31.4669 376.336C32.055 375.306 32.8816 374.433 33.8769 373.79C39.0646 368.653 39.3227 368.763 39.4799 368.831C39.7293 368.937 40.081 369.692 40.5218 371.083L40.5474 371.168L40.5049 371.249C40.4426 371.351 39.1669 373.756 41.4072 375.08C42.9442 375.987 43.6307 376.051 43.8932 376.022C43.7994 375.836 43.761 375.627 43.7828 375.42C43.8172 375.226 43.8929 375.042 44.0047 374.88C44.1165 374.719 44.2618 374.583 44.4307 374.483C45.383 373.892 46.3881 373.392 47.433 372.989L47.6487 372.904L51.0781 384.585L54.7414 389.935C54.877 390.133 54.9665 390.36 55.0031 390.598C55.0398 390.836 55.0228 391.079 54.9534 391.309C54.8562 391.628 54.6627 391.909 54.3996 392.114C54.1364 392.318 53.8164 392.436 53.4837 392.45C51.9679 392.513 49.1259 392.42 47.1736 391.084C46.6567 390.727 46.0045 390.215 45.2849 389.621L45.2874 389.624Z" fill="#2F2E43"/>
<path d="M86.9884 284.565L73.4709 385.296H63.3323L56.5732 284.565H86.9928H86.9884Z" fill="#2F2E43"/>
<path d="M60.8003 339.587L40.6123 365.827L49.2513 372.975L83.8971 339.964L86.9929 284.564L80.7975 290.114L60.8003 339.587Z" fill="#2F2E43"/>
<path d="M80.797 225.309L86.9924 284.565H56.5735L54.2147 265.334C52.7616 253.456 55.1799 241.426 61.1091 231.037L65.7749 222.866L80.797 225.309Z" fill="#D6D6E3"/>
<path d="M83.5239 301.404C83.0671 300.215 82.3253 299.157 81.364 298.324L77.2799 285.732L71.1182 287.891L75.9249 300.428C75.7952 301.691 75.983 302.965 76.4712 304.136C77.644 307.081 80.1768 308.858 82.1204 308.103C84.0639 307.348 84.6911 304.348 83.5177 301.404H83.5239Z" fill="#9F616A"/>
<path d="M81.9447 295.834L75.1563 299.296L60.5501 272.19V272.144L58.6066 241.822C58.5266 240.569 58.7039 239.313 59.1276 238.131C59.5513 236.949 60.2124 235.866 61.07 234.95C61.9277 234.035 62.9636 233.305 64.114 232.805C65.2643 232.306 66.5046 232.049 67.7581 232.049C69.0117 232.049 70.252 232.306 71.4023 232.805C72.5526 233.305 73.5886 234.035 74.4463 234.95C75.3039 235.866 75.965 236.949 76.3887 238.131C76.8124 239.313 76.9897 240.569 76.9097 241.822L75.2711 267.859L81.9428 295.838L81.9447 295.834Z" fill="#D6D6E3"/>
<path d="M502.607 340.11H183.227C180.251 340.11 177.838 337.96 177.834 335.309V119.802C177.838 117.152 180.251 115.004 183.227 115.001H502.607C505.584 115.001 507.996 117.152 508 119.802V335.309C507.996 337.96 505.583 340.106 502.607 340.11ZM183.227 116.067C180.912 116.067 179.035 117.74 179.033 119.801V335.308C179.033 337.369 180.912 339.04 183.227 339.042H502.607C504.922 339.042 506.799 337.369 506.801 335.308V119.801C506.801 117.74 504.922 116.069 502.607 116.067H183.227Z" fill="#E6E6E6"/>
<path d="M471.55 164.992H214.489C213.059 164.99 211.689 164.421 210.678 163.408C209.667 162.395 209.098 161.022 209.096 159.589V140.98C209.098 139.548 209.667 138.175 210.678 137.162C211.689 136.149 213.059 135.579 214.489 135.577H471.55C472.98 135.579 474.351 136.149 475.362 137.162C476.373 138.175 476.942 139.548 476.943 140.98V159.589C476.942 161.022 476.373 162.395 475.362 163.408C474.351 164.421 472.98 164.99 471.55 164.992ZM214.489 136.778C213.377 136.779 212.311 137.223 211.525 138.01C210.738 138.798 210.296 139.866 210.295 140.98V159.589C210.296 160.703 210.738 161.771 211.525 162.559C212.311 163.347 213.377 163.79 214.489 163.791H471.55C472.662 163.79 473.728 163.347 474.515 162.559C475.301 161.771 475.744 160.703 475.745 159.589V140.98C475.744 139.866 475.301 138.798 474.515 138.01C473.728 137.223 472.662 136.779 471.55 136.778H214.489Z" fill="#3F3D56"/>
<path d="M316.355 222.453H214.489C213.059 222.451 211.689 221.882 210.678 220.869C209.667 219.856 209.098 218.483 209.096 217.05V198.441C209.098 197.009 209.667 195.635 210.678 194.623C211.689 193.61 213.059 193.04 214.489 193.038H316.355C317.785 193.04 319.156 193.61 320.167 194.623C321.178 195.635 321.746 197.009 321.748 198.441V217.05C321.746 218.483 321.178 219.856 320.167 220.869C319.156 221.882 317.785 222.451 316.355 222.453ZM214.489 194.239C213.377 194.24 212.311 194.683 211.525 195.471C210.738 196.259 210.296 197.327 210.295 198.441V217.05C210.296 218.164 210.738 219.232 211.525 220.02C212.311 220.808 213.377 221.251 214.489 221.252H316.355C317.467 221.251 318.533 220.808 319.32 220.02C320.106 219.232 320.548 218.164 320.55 217.05V198.441C320.548 197.327 320.106 196.259 319.32 195.471C318.533 194.683 317.467 194.24 316.355 194.239H214.489Z" fill="#3F3D56"/>
<path d="M471.551 222.453H369.685C368.255 222.451 366.884 221.882 365.873 220.869C364.862 219.856 364.294 218.483 364.292 217.05V198.441C364.294 197.009 364.862 195.635 365.873 194.623C366.884 193.61 368.255 193.04 369.685 193.038H471.551C472.981 193.04 474.351 193.61 475.362 194.623C476.373 195.635 476.942 197.009 476.944 198.441V217.05C476.942 218.483 476.373 219.856 475.362 220.869C474.351 221.882 472.981 222.451 471.551 222.453ZM369.685 194.239C368.573 194.24 367.507 194.683 366.72 195.471C365.934 196.259 365.492 197.327 365.49 198.441V217.05C365.492 218.164 365.934 219.232 366.72 220.02C367.507 220.808 368.573 221.251 369.685 221.252H471.551C472.663 221.251 473.729 220.808 474.515 220.02C475.302 219.232 475.744 218.164 475.745 217.05V198.441C475.744 197.327 475.302 196.259 474.515 195.471C473.729 194.683 472.663 194.24 471.551 194.239H369.685Z" fill="#3F3D56"/>
<path d="M376.505 319.608H308.195C306.845 319.607 305.55 319.068 304.595 318.112C303.641 317.155 303.104 315.858 303.102 314.505V307.902C303.104 306.55 303.641 305.253 304.596 304.296C305.55 303.34 306.845 302.802 308.195 302.8H376.505C377.855 302.802 379.15 303.34 380.105 304.296C381.059 305.253 381.597 306.55 381.598 307.902V314.505C381.597 315.858 381.06 317.155 380.105 318.112C379.15 319.068 377.856 319.607 376.505 319.608Z" fill="#E6E6E6"/>
<path d="M225.873 253.668C224.925 253.667 223.999 253.385 223.211 252.857C222.423 252.329 221.808 251.579 221.446 250.702C221.083 249.824 220.989 248.859 221.174 247.927C221.359 246.996 221.816 246.14 222.486 245.469C223.157 244.797 224.011 244.34 224.941 244.155C225.871 243.97 226.834 244.065 227.71 244.429C228.586 244.792 229.335 245.408 229.861 246.197C230.388 246.987 230.669 247.916 230.669 248.865C230.669 250.139 230.164 251.36 229.265 252.261C228.366 253.162 227.147 253.668 225.875 253.668H225.873ZM225.873 245.264C225.162 245.264 224.467 245.475 223.876 245.871C223.285 246.266 222.824 246.829 222.552 247.487C222.28 248.145 222.208 248.869 222.347 249.568C222.486 250.267 222.828 250.908 223.331 251.412C223.834 251.916 224.475 252.259 225.172 252.398C225.869 252.537 226.592 252.466 227.249 252.193C227.906 251.92 228.468 251.459 228.863 250.866C229.258 250.274 229.469 249.578 229.469 248.865C229.469 247.91 229.09 246.994 228.416 246.318C227.741 245.643 226.827 245.264 225.873 245.264Z" fill="#E6E6E6"/>
<path d="M225.873 269.276C224.925 269.276 223.999 268.994 223.211 268.466C222.423 267.938 221.808 267.188 221.446 266.31C221.083 265.433 220.989 264.467 221.174 263.536C221.359 262.604 221.816 261.749 222.486 261.077C223.157 260.406 224.011 259.949 224.941 259.763C225.871 259.578 226.834 259.673 227.71 260.037C228.586 260.401 229.335 261.016 229.861 261.806C230.388 262.595 230.669 263.524 230.669 264.474C230.669 265.747 230.164 266.969 229.265 267.869C228.366 268.77 227.147 269.276 225.875 269.276H225.873ZM225.873 260.872C225.162 260.872 224.467 261.083 223.876 261.479C223.285 261.875 222.824 262.437 222.552 263.095C222.28 263.753 222.208 264.478 222.347 265.176C222.486 265.875 222.828 266.517 223.331 267.02C223.834 267.524 224.475 267.867 225.172 268.006C225.869 268.145 226.592 268.074 227.249 267.801C227.906 267.529 228.468 267.067 228.863 266.475C229.258 265.882 229.469 265.186 229.469 264.474C229.469 263.518 229.09 262.602 228.416 261.927C227.741 261.251 226.827 260.872 225.873 260.872Z" fill="#E6E6E6"/>
<path d="M225.873 284.883C224.925 284.883 223.999 284.601 223.211 284.073C222.423 283.545 221.808 282.795 221.446 281.917C221.083 281.04 220.989 280.074 221.174 279.143C221.359 278.211 221.816 277.356 222.486 276.684C223.157 276.013 224.011 275.556 224.941 275.37C225.871 275.185 226.834 275.281 227.71 275.644C228.586 276.008 229.335 276.623 229.861 277.413C230.388 278.203 230.669 279.131 230.669 280.081C230.669 281.354 230.164 282.576 229.265 283.476C228.366 284.377 227.147 284.883 225.875 284.883H225.873ZM225.873 276.479C225.162 276.479 224.467 276.69 223.876 277.086C223.285 277.482 222.824 278.044 222.552 278.702C222.28 279.36 222.208 280.085 222.347 280.783C222.486 281.482 222.828 282.124 223.331 282.628C223.834 283.131 224.475 283.474 225.172 283.613C225.869 283.752 226.592 283.681 227.249 283.408C227.906 283.136 228.468 282.674 228.863 282.082C229.258 281.489 229.469 280.793 229.469 280.081C229.469 279.125 229.09 278.209 228.416 277.534C227.741 276.858 226.827 276.479 225.873 276.479Z" fill="#B48CBE"/>
<path d="M248.819 244.964C247.786 244.964 246.796 245.375 246.065 246.106C245.335 246.838 244.924 247.831 244.924 248.866C244.924 249.9 245.335 250.893 246.065 251.625C246.796 252.356 247.786 252.767 248.819 252.767H304.546C305.579 252.767 306.57 252.356 307.3 251.625C308.03 250.893 308.441 249.9 308.441 248.866C308.441 247.831 308.03 246.838 307.3 246.106C306.57 245.375 305.579 244.964 304.546 244.964H248.819Z" fill="#E6E6E6"/>
<path d="M248.82 260.571C247.795 260.584 246.817 261.001 246.097 261.731C245.377 262.462 244.974 263.447 244.974 264.473C244.974 265.5 245.377 266.485 246.097 267.215C246.817 267.945 247.795 268.362 248.82 268.375H304.546C305.579 268.375 306.57 267.964 307.3 267.232C308.031 266.501 308.441 265.508 308.441 264.473C308.441 263.438 308.031 262.446 307.3 261.714C306.57 260.982 305.579 260.571 304.546 260.571H248.82Z" fill="#E6E6E6"/>
<path d="M248.82 276.261C247.795 276.274 246.817 276.691 246.097 277.421C245.377 278.151 244.974 279.136 244.974 280.163C244.974 281.189 245.377 282.174 246.097 282.905C246.817 283.635 247.795 284.052 248.82 284.065H304.546C305.579 284.065 306.57 283.654 307.3 282.922C308.031 282.19 308.441 281.198 308.441 280.163C308.441 279.128 308.031 278.135 307.3 277.404C306.57 276.672 305.579 276.261 304.546 276.261H248.82Z" fill="#E6E6E6"/>
<path d="M381.369 253.668C380.421 253.668 379.494 253.386 378.706 252.858C377.917 252.331 377.303 251.581 376.94 250.703C376.577 249.826 376.482 248.86 376.667 247.928C376.852 246.997 377.309 246.141 377.979 245.47C378.65 244.798 379.504 244.341 380.434 244.155C381.364 243.97 382.327 244.065 383.203 244.428C384.079 244.792 384.828 245.407 385.355 246.197C385.881 246.987 386.163 247.915 386.163 248.865C386.163 250.139 385.658 251.36 384.759 252.261C383.86 253.162 382.64 253.668 381.369 253.668ZM381.369 245.264C380.658 245.264 379.963 245.475 379.371 245.871C378.78 246.266 378.319 246.829 378.047 247.487C377.775 248.145 377.704 248.869 377.843 249.568C377.981 250.267 378.324 250.908 378.827 251.412C379.329 251.916 379.97 252.259 380.667 252.398C381.365 252.537 382.088 252.466 382.745 252.193C383.402 251.92 383.963 251.459 384.358 250.866C384.753 250.274 384.964 249.578 384.964 248.865C384.964 248.392 384.871 247.924 384.69 247.487C384.51 247.05 384.245 246.653 383.911 246.318C383.577 245.984 383.181 245.719 382.745 245.538C382.309 245.357 381.841 245.264 381.369 245.264Z" fill="#E6E6E6"/>
<path d="M381.369 269.276C380.421 269.276 379.494 268.994 378.706 268.467C377.917 267.939 377.303 267.189 376.94 266.311C376.577 265.434 376.482 264.468 376.667 263.537C376.852 262.605 377.309 261.749 377.979 261.078C378.65 260.406 379.504 259.949 380.434 259.764C381.364 259.578 382.327 259.673 383.203 260.037C384.079 260.4 384.828 261.016 385.355 261.806C385.881 262.595 386.163 263.524 386.163 264.474C386.163 265.747 385.658 266.969 384.759 267.869C383.86 268.77 382.64 269.276 381.369 269.276ZM381.369 260.872C380.658 260.872 379.963 261.083 379.371 261.479C378.78 261.875 378.319 262.437 378.047 263.095C377.775 263.753 377.704 264.478 377.843 265.176C377.981 265.875 378.324 266.517 378.827 267.02C379.329 267.524 379.97 267.867 380.667 268.006C381.365 268.145 382.088 268.074 382.745 267.801C383.402 267.529 383.963 267.067 384.358 266.475C384.753 265.882 384.964 265.186 384.964 264.474C384.964 264.001 384.871 263.532 384.69 263.095C384.51 262.658 384.245 262.261 383.911 261.927C383.577 261.592 383.181 261.327 382.745 261.146C382.309 260.965 381.841 260.872 381.369 260.872Z" fill="#B48CBE"/>
<path d="M381.369 285.017C380.421 285.017 379.494 284.736 378.706 284.208C377.917 283.68 377.303 282.93 376.94 282.053C376.577 281.175 376.482 280.21 376.667 279.278C376.852 278.347 377.309 277.491 377.979 276.819C378.65 276.148 379.504 275.69 380.434 275.505C381.364 275.32 382.327 275.415 383.203 275.778C384.079 276.142 384.828 276.757 385.355 277.547C385.881 278.337 386.163 279.265 386.163 280.215C386.163 281.489 385.658 282.71 384.759 283.611C383.86 284.511 382.64 285.017 381.369 285.017ZM381.369 276.613C380.658 276.613 379.963 276.824 379.371 277.22C378.78 277.616 378.319 278.178 378.047 278.837C377.775 279.495 377.704 280.219 377.843 280.918C377.981 281.616 378.324 282.258 378.827 282.762C379.329 283.266 379.97 283.609 380.667 283.748C381.365 283.887 382.088 283.815 382.745 283.543C383.402 283.27 383.963 282.808 384.358 282.216C384.753 281.624 384.964 280.927 384.964 280.215C384.964 279.742 384.871 279.274 384.69 278.837C384.51 278.4 384.245 278.003 383.911 277.668C383.577 277.334 383.181 277.068 382.745 276.887C382.309 276.706 381.841 276.613 381.369 276.613Z" fill="#E6E6E6"/>
<path d="M404.139 244.964C403.107 244.964 402.116 245.375 401.385 246.106C400.655 246.838 400.245 247.831 400.245 248.866C400.245 249.9 400.655 250.893 401.385 251.625C402.116 252.356 403.107 252.767 404.139 252.767H459.866C460.899 252.767 461.89 252.356 462.62 251.625C463.351 250.893 463.761 249.9 463.761 248.866C463.761 247.831 463.351 246.838 462.62 246.106C461.89 245.375 460.899 244.964 459.866 244.964H404.139Z" fill="#E6E6E6"/>
<path d="M404.139 260.571C403.624 260.565 403.112 260.661 402.634 260.854C402.155 261.047 401.72 261.334 401.353 261.697C400.986 262.06 400.695 262.492 400.496 262.969C400.297 263.445 400.195 263.957 400.195 264.473C400.195 264.99 400.297 265.501 400.496 265.978C400.695 266.455 400.986 266.887 401.353 267.25C401.72 267.613 402.155 267.899 402.634 268.092C403.112 268.286 403.624 268.382 404.139 268.375H459.866C460.899 268.375 461.89 267.964 462.62 267.232C463.351 266.501 463.761 265.508 463.761 264.473C463.761 263.438 463.351 262.446 462.62 261.714C461.89 260.982 460.899 260.571 459.866 260.571H404.139Z" fill="#E6E6E6"/>
<path d="M404.139 276.261C403.624 276.254 403.112 276.35 402.634 276.544C402.155 276.737 401.72 277.023 401.353 277.386C400.986 277.749 400.695 278.181 400.496 278.658C400.297 279.135 400.195 279.646 400.195 280.163C400.195 280.679 400.297 281.191 400.496 281.668C400.695 282.144 400.986 282.577 401.353 282.939C401.72 283.302 402.155 283.589 402.634 283.782C403.112 283.975 403.624 284.071 404.139 284.065H459.866C460.899 284.065 461.89 283.654 462.62 282.922C463.351 282.19 463.761 281.198 463.761 280.163C463.761 279.128 463.351 278.135 462.62 277.404C461.89 276.672 460.899 276.261 459.866 276.261H404.139Z" fill="#E6E6E6"/>
<path d="M225.95 203.844C224.917 203.844 223.926 204.255 223.195 204.987C222.465 205.718 222.055 206.711 222.055 207.746C222.055 208.781 222.465 209.773 223.195 210.505C223.926 211.237 224.917 211.648 225.95 211.648H292.462C293.495 211.648 294.486 211.237 295.216 210.505C295.947 209.773 296.357 208.781 296.357 207.746C296.357 206.711 295.947 205.718 295.216 204.987C294.486 204.255 293.495 203.844 292.462 203.844H225.95Z" fill="#E6E6E6"/>
<path d="M225.95 146.382C224.917 146.382 223.926 146.793 223.195 147.525C222.465 148.257 222.055 149.249 222.055 150.284C222.055 151.319 222.465 152.311 223.195 153.043C223.926 153.775 224.917 154.186 225.95 154.186H292.462C293.495 154.186 294.486 153.775 295.216 153.043C295.947 152.311 296.357 151.319 296.357 150.284C296.357 149.249 295.947 148.257 295.216 147.525C294.486 146.793 293.495 146.382 292.462 146.382H225.95Z" fill="#B48CBE"/>
<path d="M303.401 205.239C303.349 205.239 303.297 205.253 303.251 205.279C303.206 205.306 303.168 205.344 303.142 205.389C303.115 205.435 303.101 205.487 303.102 205.54C303.102 205.592 303.116 205.644 303.142 205.69L305.685 210.102C305.712 210.148 305.75 210.186 305.795 210.212C305.841 210.238 305.892 210.252 305.945 210.252C305.997 210.252 306.049 210.238 306.094 210.212C306.14 210.186 306.178 210.148 306.204 210.102L308.748 205.69C308.774 205.644 308.788 205.592 308.788 205.54C308.788 205.487 308.774 205.435 308.748 205.389C308.722 205.344 308.684 205.306 308.638 205.279C308.593 205.253 308.541 205.239 308.488 205.239H303.401Z" fill="#B48CBE"/>
<path d="M381.145 203.844C380.112 203.844 379.122 204.255 378.391 204.987C377.661 205.718 377.25 206.711 377.25 207.746C377.25 208.781 377.661 209.773 378.391 210.505C379.122 211.237 380.112 211.648 381.145 211.648H447.658C448.691 211.648 449.682 211.237 450.412 210.505C451.142 209.773 451.553 208.781 451.553 207.746C451.553 206.711 451.142 205.718 450.412 204.987C449.682 204.255 448.691 203.844 447.658 203.844H381.145Z" fill="#E6E6E6"/>
<path d="M458.597 205.239C458.544 205.239 458.492 205.253 458.447 205.279C458.401 205.306 458.363 205.344 458.337 205.389C458.311 205.435 458.297 205.487 458.297 205.54C458.297 205.592 458.311 205.644 458.337 205.69L460.881 210.102C460.907 210.148 460.945 210.186 460.99 210.212C461.036 210.239 461.088 210.252 461.14 210.252C461.193 210.252 461.245 210.239 461.29 210.212C461.336 210.186 461.374 210.148 461.4 210.102L463.943 205.69C463.969 205.644 463.983 205.592 463.983 205.54C463.983 205.487 463.97 205.435 463.943 205.389C463.917 205.344 463.879 205.306 463.833 205.279C463.788 205.253 463.736 205.239 463.683 205.239H458.597Z" fill="#B48CBE"/>
<path d="M381.37 266.875C382.694 266.875 383.767 265.8 383.767 264.474C383.767 263.147 382.694 262.072 381.37 262.072C380.046 262.072 378.973 263.147 378.973 264.474C378.973 265.8 380.046 266.875 381.37 266.875Z" fill="#B48CBE"/>
<path d="M225.875 282.564C227.199 282.564 228.272 281.489 228.272 280.163C228.272 278.837 227.199 277.762 225.875 277.762C224.551 277.762 223.478 278.837 223.478 280.163C223.478 281.489 224.551 282.564 225.875 282.564Z" fill="#B48CBE"/>
<path d="M145.145 401.997H9.5038C9.37317 401.992 9.24941 401.937 9.15862 401.843C9.06783 401.749 9.01709 401.623 9.01709 401.492C9.01709 401.361 9.06783 401.235 9.15862 401.141C9.24941 401.047 9.37317 400.991 9.5038 400.987H145.145C145.276 400.991 145.4 401.047 145.49 401.141C145.581 401.235 145.632 401.361 145.632 401.492C145.632 401.623 145.581 401.749 145.49 401.843C145.4 401.937 145.276 401.992 145.145 401.997Z" fill="#F2F2F2"/>
<path d="M165.356 268.81L109.41 308.091C108.303 308.866 106.935 309.17 105.605 308.935C104.274 308.701 103.091 307.947 102.315 306.84L98.5318 301.432C97.7581 300.323 97.455 298.953 97.6889 297.62C97.9228 296.288 98.6747 295.103 99.7796 294.325L155.726 255.044C156.832 254.269 158.201 253.965 159.531 254.2C160.861 254.434 162.044 255.187 162.82 256.294L166.603 261.702C167.377 262.811 167.681 264.182 167.447 265.514C167.213 266.847 166.461 268.032 165.356 268.81Z" fill="#B48CBE"/>
</g>
<defs>
<radialGradient id="paint0_radial_15_2329" cx="0" cy="0" r="1" gradientUnits="userSpaceOnUse" gradientTransform="translate(258 258) rotate(90) scale(258)">
<stop stop-color="#F7E3FF"/>
<stop offset="1" stop-color="#F9F9F9"/>
</radialGradient>
<clipPath id="clip0_15_2329">
<rect width="499" height="287" fill="white" transform="translate(9 115)"/>
</clipPath>
</defs>
</svg>
