<svg width="109" height="110" viewBox="0 0 109 110" fill="none" xmlns="http://www.w3.org/2000/svg">
<path d="M95.8564 43.6874C121.225 92.8745 113.193 130.355 42.2708 97.273C-45.1999 111.442 35.3308 75.538 4.44563 43.6874C4.44563 14.0928 27.801 19.5875 57.3955 19.5875C88.1285 -26.1171 111.617 19.2423 95.8564 43.6874Z" fill="#F2D2FF"/>
<path d="M64.618 7.88025H26.7928C24.2849 7.88025 21.8796 8.87653 20.1062 10.6499C18.3328 12.4233 17.3365 14.8286 17.3365 17.3365V92.9869C17.3365 95.4948 18.3328 97.9001 20.1062 99.6735C21.8796 101.447 24.2849 102.443 26.7928 102.443H83.5306C86.0385 102.443 88.4438 101.447 90.2172 99.6735C91.9906 97.9001 92.9868 95.4948 92.9868 92.9869V36.2491M64.618 7.88025L92.9868 36.2491M64.618 7.88025V36.2491H92.9868M74.0743 59.8898H36.2491M74.0743 78.8024H36.2491M45.7054 40.9773H36.2491" stroke="#17124A" stroke-width="5" stroke-linecap="round" stroke-linejoin="round"/>
</svg>
