<svg width="110" height="96" viewBox="0 0 110 96" fill="none" xmlns="http://www.w3.org/2000/svg">
<path d="M103.523 63.7631C99.9531 113.726 67.8254 64.4771 46.9828 92.7369C-32.2658 105.574 12.7132 71.0009 12.7132 44.1882C-4.99766 10.9308 37.305 4.20692 64.1177 4.20692C104.813 -7.21561 117.802 41.6159 103.523 63.7631Z" fill="#F2D2FF"/>
<path d="M78.6645 88.1742V78.6548C78.6645 73.6054 76.6677 68.7629 73.1135 65.1924C69.5593 61.622 64.7387 59.6161 59.7123 59.6161H21.808C16.7816 59.6161 11.961 61.622 8.40679 65.1924C4.85257 68.7629 2.85583 73.6054 2.85583 78.6548V88.1742M107.093 88.1736V78.6542C107.09 74.4359 105.692 70.338 103.119 67.0041C100.547 63.6701 96.9444 61.2889 92.8786 60.2343M73.9264 3.1182C78.0031 4.16676 81.6164 6.5485 84.1968 9.88794C86.7771 13.2274 88.1777 17.3345 88.1777 21.5619C88.1777 25.7893 86.7771 29.8965 84.1968 33.2359C81.6164 36.5754 78.0031 38.9571 73.9264 40.0057M59.7123 21.5387C59.7123 32.0535 51.2271 40.5774 40.7602 40.5774C30.2932 40.5774 21.808 32.0535 21.808 21.5387C21.808 11.0239 30.2932 2.5 40.7602 2.5C51.2271 2.5 59.7123 11.0239 59.7123 21.5387Z" stroke="#17124A" stroke-width="5" stroke-linecap="round" stroke-linejoin="round"/>
</svg>
