<svg width="110" height="113" viewBox="0 0 110 113" fill="none" xmlns="http://www.w3.org/2000/svg">
<path d="M99.3822 56.2609C95.8913 105.12 70.8917 69.818 51.9059 103.737C34.9382 134.051 18.3932 82.4813 18.3932 56.2609C-29.6467 15.36 28.6131 0 54.8335 0C66.0044 52.3635 134.426 -6.9818 99.3822 56.2609Z" fill="#F2D2FF"/>
<path d="M16.7563 14.1555H89.8217C91.113 14.1555 92.1598 15.2071 92.1598 16.5043V105.171C92.1598 106.468 91.113 107.52 89.8217 107.52H19.0944C17.8031 107.52 16.7563 106.468 16.7563 105.171V14.1555ZM16.7563 14.1555C16.7563 12.3937 16.9093 9.72111 17.9254 8.8705C21.4325 5.93442 82.2229 1.82371 85.7301 2.99847C88.6526 3.97742 88.0681 7.89178 88.0681 9.45763M76.3777 57.6078C76.3777 69.9312 66.4331 79.9212 54.1658 79.9212M76.3777 57.6078C76.3777 45.2844 66.4331 35.2943 54.1658 35.2943M76.3777 57.6078H31.9539M54.1658 79.9212C41.8985 79.9212 31.9539 69.9312 31.9539 57.6078M54.1658 79.9212C59.7216 73.811 62.879 65.8815 63.0506 57.6078C62.879 49.334 59.7216 41.4045 54.1658 35.2943M54.1658 79.9212C48.61 73.811 45.4526 65.8815 45.281 57.6078C45.4526 49.334 48.61 41.4045 54.1658 35.2943M31.9539 57.6078C31.9539 45.2844 41.8985 35.2943 54.1658 35.2943" stroke="#17124A" stroke-width="5" stroke-linecap="round" stroke-linejoin="round"/>
</svg>
