<svg width="516" height="516" viewBox="0 0 516 516" fill="none" xmlns="http://www.w3.org/2000/svg">
<circle cx="258" cy="258" r="258" fill="url(#paint0_radial_13_753)"/>
<g clip-path="url(#clip0_13_753)">
<path d="M406.478 106.297L63.7718 206.136L72.8491 237.287L415.555 137.449L406.478 106.297Z" fill="#3F3D56"/>
<path d="M104.716 349.226L54.2039 175.879C53.8294 174.594 53.9809 173.212 54.625 172.039C55.269 170.865 56.353 169.996 57.6383 169.621L392.037 72.2029C393.322 71.8297 394.703 71.9816 395.876 72.6254C397.049 73.2692 397.919 74.3521 398.295 75.6366L443.045 229.21L441.66 229.613L396.91 76.0401C396.641 75.123 396.02 74.3499 395.182 73.8901C394.344 73.4303 393.358 73.3214 392.44 73.5872L58.0417 171.005C57.1236 171.273 56.3494 171.894 55.8893 172.732C55.4293 173.571 55.3211 174.557 55.5886 175.475L106.101 348.822L104.716 349.226Z" fill="#3F3D56"/>
<path d="M369.032 229.923C368.017 229.922 367.03 229.593 366.219 228.984C365.407 228.375 364.814 227.52 364.529 226.546L356.057 197.472C355.711 196.279 355.852 194.997 356.45 193.907C357.048 192.818 358.053 192.01 359.246 191.661L388.324 183.19C389.518 182.844 390.8 182.985 391.89 183.583C392.979 184.181 393.787 185.187 394.136 186.379L402.608 215.454C402.954 216.647 402.813 217.929 402.215 219.018C401.617 220.108 400.612 220.915 399.419 221.264L370.341 229.736C369.915 229.86 369.475 229.923 369.032 229.923Z" fill="#B48CBE"/>
<path d="M103.935 176.415C103.848 176.116 103.745 175.822 103.625 175.535C102.812 173.562 101.298 171.959 99.3751 171.034C97.4518 170.109 95.2545 169.927 93.2053 170.524C91.1562 171.12 89.3998 172.453 88.2737 174.266C87.1475 176.079 86.7311 178.243 87.1043 180.345C87.1568 180.651 87.2266 180.954 87.3135 181.253C87.8401 183.05 88.9348 184.629 90.4336 185.752C91.9325 186.875 93.7549 187.482 95.6279 187.483C96.4456 187.485 97.2593 187.368 98.0437 187.137C100.245 186.493 102.102 185.004 103.206 182.994C104.311 180.984 104.573 178.618 103.935 176.415ZM97.6399 185.752C95.8039 186.285 93.8315 186.068 92.1552 185.149C90.479 184.23 89.2357 182.684 88.698 180.849C88.6136 180.55 88.5461 180.247 88.4959 179.941C88.2254 178.21 88.5948 176.439 89.535 174.961C90.4752 173.482 91.9218 172.397 93.6044 171.907C95.2869 171.418 97.0902 171.558 98.677 172.301C100.264 173.044 101.525 174.34 102.226 175.946C102.357 176.228 102.465 176.52 102.551 176.819C103.083 178.654 102.865 180.626 101.944 182.301C101.023 183.976 99.4751 185.218 97.6399 185.752Z" fill="#B48CBE"/>
<path d="M82.7108 182.594C82.2493 181.009 82.2937 179.32 82.8376 177.762C83.3816 176.204 84.3981 174.854 85.7456 173.901C84.4832 173.839 83.2243 174.08 82.0739 174.603C80.9235 175.127 79.9149 175.918 79.132 176.91C78.3491 177.902 77.8147 179.067 77.5732 180.307C77.3317 181.548 77.3902 182.828 77.7438 184.041C78.0973 185.254 78.7357 186.366 79.6058 187.282C80.4758 188.199 81.5523 188.895 82.7457 189.311C83.939 189.727 85.2145 189.853 86.4661 189.676C87.7176 189.5 88.9089 189.027 89.9407 188.297C88.292 188.217 86.7094 187.624 85.4135 186.602C84.1176 185.58 83.1728 184.179 82.7108 182.594Z" fill="#B48CBE"/>
<path d="M306.881 218.329C306.727 217.777 306.467 217.261 306.113 216.81C305.76 216.359 305.322 215.982 304.823 215.701C304.324 215.42 303.774 215.24 303.206 215.171C302.637 215.102 302.06 215.146 301.509 215.301L253.633 228.69L248.477 230.132H280.856L286.012 228.69L303.859 223.701C304.972 223.388 305.915 222.647 306.482 221.64C307.048 220.633 307.192 219.442 306.881 218.329Z" fill="#CCCCCC"/>
<path d="M273.01 208.328C272.698 207.215 271.957 206.272 270.949 205.705C269.942 205.139 268.75 204.995 267.637 205.307L195.799 225.395C194.795 225.679 193.926 226.313 193.348 227.181C192.771 228.05 192.522 229.097 192.648 230.132H211.246L216.409 228.69L269.988 213.707C271.102 213.393 272.045 212.651 272.612 211.642C273.178 210.634 273.321 209.442 273.01 208.328Z" fill="#CCCCCC"/>
<path d="M457.952 228.688H109.649C108.311 228.69 107.028 229.222 106.081 230.168C105.135 231.115 104.603 232.398 104.601 233.736V439.953C104.603 441.291 105.135 442.574 106.081 443.52C107.028 444.466 108.311 444.998 109.649 445H457.952C459.29 444.998 460.574 444.466 461.52 443.52C462.466 442.574 462.999 441.291 463 439.953V233.736C462.998 232.398 462.466 231.115 461.52 230.169C460.573 229.222 459.29 228.69 457.952 228.688ZM461.558 439.953C461.557 440.909 461.177 441.825 460.501 442.502C459.825 443.178 458.908 443.558 457.952 443.558H109.649C108.693 443.558 107.776 443.178 107.1 442.502C106.424 441.825 106.044 440.909 106.043 439.953V233.736C106.044 232.78 106.424 231.863 107.1 231.187C107.776 230.511 108.693 230.131 109.649 230.131H457.952C458.908 230.131 459.825 230.511 460.501 231.187C461.177 231.863 461.557 232.78 461.558 233.736V439.953Z" fill="#3F3D56"/>
<path d="M143.539 256.811C141.828 256.811 140.155 256.303 138.732 255.352C137.309 254.402 136.2 253.05 135.545 251.469C134.89 249.888 134.718 248.148 135.052 246.47C135.386 244.792 136.21 243.25 137.42 242.04C138.631 240.83 140.173 240.006 141.851 239.672C143.53 239.338 145.27 239.509 146.851 240.164C148.432 240.819 149.784 241.928 150.734 243.351C151.685 244.774 152.193 246.447 152.193 248.158C152.19 250.452 151.278 252.651 149.655 254.273C148.033 255.895 145.834 256.808 143.539 256.811ZM143.539 240.948C142.113 240.948 140.719 241.371 139.533 242.163C138.347 242.955 137.423 244.081 136.877 245.399C136.331 246.716 136.188 248.166 136.467 249.565C136.745 250.963 137.432 252.248 138.44 253.257C139.449 254.265 140.734 254.952 142.132 255.23C143.531 255.508 144.981 255.365 146.299 254.82C147.617 254.274 148.743 253.35 149.535 252.164C150.328 250.978 150.751 249.584 150.751 248.158C150.748 246.246 149.988 244.414 148.636 243.062C147.284 241.71 145.451 240.95 143.539 240.948Z" fill="#B48CBE"/>
<path d="M130.089 248.158C130.089 246.508 130.604 244.898 131.562 243.554C132.521 242.211 133.874 241.199 135.434 240.66C134.24 240.248 132.964 240.128 131.713 240.308C130.462 240.489 129.272 240.966 128.243 241.7C127.214 242.433 126.375 243.402 125.796 244.526C125.217 245.649 124.915 246.894 124.915 248.158C124.915 249.422 125.217 250.667 125.796 251.791C126.375 252.914 127.214 253.883 128.243 254.617C129.272 255.35 130.462 255.827 131.713 256.008C132.964 256.189 134.24 256.068 135.434 255.656C133.874 255.118 132.521 254.106 131.562 252.762C130.604 251.418 130.089 249.809 130.089 248.158Z" fill="#B48CBE"/>
<path d="M178.617 350.386C176.897 350.384 175.247 349.699 174.03 348.483C172.814 347.266 172.129 345.617 172.127 343.896V324.428C172.127 322.707 172.811 321.057 174.028 319.84C175.245 318.623 176.896 317.939 178.617 317.939C180.339 317.939 181.989 318.623 183.207 319.84C184.424 321.057 185.108 322.707 185.108 324.428V343.896C185.106 345.617 184.421 347.266 183.204 348.483C181.988 349.699 180.338 350.384 178.617 350.386Z" fill="#B48CBE"/>
<path d="M195.924 350.386C194.204 350.384 192.554 349.699 191.337 348.483C190.121 347.266 189.436 345.617 189.434 343.896V324.428C189.434 322.707 190.118 321.057 191.335 319.84C192.552 318.623 194.203 317.939 195.924 317.939C197.646 317.939 199.296 318.623 200.514 319.84C201.731 321.057 202.414 322.707 202.414 324.428V343.896C202.412 345.617 201.728 347.266 200.511 348.483C199.295 349.699 197.645 350.384 195.924 350.386Z" fill="#B48CBE"/>
<path d="M213.231 350.386C211.511 350.384 209.861 349.699 208.644 348.483C207.428 347.266 206.743 345.617 206.741 343.896V324.428C206.741 322.707 207.425 321.057 208.642 319.84C209.859 318.623 211.51 317.939 213.231 317.939C214.953 317.939 216.603 318.623 217.821 319.84C219.038 321.057 219.721 322.707 219.721 324.428V343.896C219.719 345.617 219.035 347.266 217.818 348.483C216.602 349.699 214.952 350.384 213.231 350.386Z" fill="#B48CBE"/>
<path d="M239.913 350.386C238.192 350.384 236.543 349.699 235.326 348.483C234.109 347.266 233.425 345.617 233.423 343.896V324.428C233.423 322.707 234.107 321.057 235.324 319.84C236.541 318.623 238.192 317.939 239.913 317.939C241.634 317.939 243.285 318.623 244.502 319.84C245.719 321.057 246.403 322.707 246.403 324.428V343.896C246.401 345.617 245.717 347.266 244.5 348.483C243.283 349.699 241.634 350.384 239.913 350.386Z" fill="#B48CBE"/>
<path d="M257.22 350.386C255.499 350.384 253.85 349.699 252.633 348.483C251.416 347.266 250.732 345.617 250.73 343.896V324.428C250.73 322.707 251.414 321.057 252.631 319.84C253.848 318.623 255.499 317.939 257.22 317.939C258.941 317.939 260.592 318.623 261.809 319.84C263.026 321.057 263.71 322.707 263.71 324.428V343.896C263.708 345.617 263.024 347.266 261.807 348.483C260.59 349.699 258.941 350.384 257.22 350.386Z" fill="#B48CBE"/>
<path d="M274.527 350.386C272.806 350.384 271.157 349.699 269.94 348.483C268.723 347.266 268.039 345.617 268.037 343.896V324.428C268.037 322.707 268.721 321.057 269.938 319.84C271.155 318.623 272.806 317.939 274.527 317.939C276.248 317.939 277.899 318.623 279.116 319.84C280.333 321.057 281.017 322.707 281.017 324.428V343.896C281.015 345.617 280.331 347.266 279.114 348.483C277.897 349.699 276.248 350.384 274.527 350.386Z" fill="#B48CBE"/>
<path d="M301.208 350.386C299.488 350.384 297.838 349.699 296.621 348.483C295.405 347.266 294.72 345.617 294.718 343.896V324.428C294.718 322.707 295.402 321.057 296.619 319.84C297.836 318.623 299.487 317.939 301.208 317.939C302.93 317.939 304.58 318.623 305.798 319.84C307.015 321.057 307.699 322.707 307.699 324.428V343.896C307.697 345.617 307.012 347.266 305.795 348.483C304.579 349.699 302.929 350.384 301.208 350.386Z" fill="#B48CBE"/>
<path d="M318.515 350.386C316.795 350.384 315.145 349.699 313.928 348.483C312.712 347.266 312.027 345.617 312.025 343.896V324.428C312.025 322.707 312.709 321.057 313.926 319.84C315.143 318.623 316.794 317.939 318.515 317.939C320.237 317.939 321.887 318.623 323.105 319.84C324.322 321.057 325.006 322.707 325.006 324.428V343.896C325.004 345.617 324.319 347.266 323.102 348.483C321.886 349.699 320.236 350.384 318.515 350.386Z" fill="#B48CBE"/>
<path d="M335.822 350.386C334.102 350.384 332.452 349.699 331.235 348.483C330.019 347.266 329.334 345.617 329.332 343.896V324.428C329.332 322.707 330.016 321.057 331.233 319.84C332.45 318.623 334.101 317.939 335.822 317.939C337.544 317.939 339.194 318.623 340.412 319.84C341.629 321.057 342.313 322.707 342.313 324.428V343.896C342.311 345.617 341.626 347.266 340.409 348.483C339.193 349.699 337.543 350.384 335.822 350.386Z" fill="#B48CBE"/>
<path d="M362.504 350.386C360.783 350.384 359.134 349.699 357.917 348.483C356.7 347.266 356.016 345.617 356.014 343.896V324.428C356.014 322.707 356.698 321.057 357.915 319.84C359.132 318.623 360.783 317.939 362.504 317.939C364.225 317.939 365.876 318.623 367.093 319.84C368.31 321.057 368.994 322.707 368.994 324.428V343.896C368.992 345.617 368.308 347.266 367.091 348.483C365.874 349.699 364.225 350.384 362.504 350.386Z" fill="#B48CBE"/>
<path d="M379.811 350.386C378.09 350.384 376.441 349.699 375.224 348.483C374.007 347.266 373.323 345.617 373.321 343.896V324.428C373.321 322.707 374.005 321.057 375.222 319.84C376.439 318.623 378.09 317.939 379.811 317.939C381.532 317.939 383.183 318.623 384.4 319.84C385.617 321.057 386.301 322.707 386.301 324.428V343.896C386.299 345.617 385.615 347.266 384.398 348.483C383.181 349.699 381.532 350.384 379.811 350.386Z" fill="#B48CBE"/>
<path d="M397.118 350.386C395.397 350.384 393.748 349.699 392.531 348.483C391.314 347.266 390.63 345.617 390.628 343.896V324.428C390.628 322.707 391.312 321.057 392.529 319.84C393.746 318.623 395.397 317.939 397.118 317.939C398.839 317.939 400.49 318.623 401.707 319.84C402.924 321.057 403.608 322.707 403.608 324.428V343.896C403.606 345.617 402.922 347.266 401.705 348.483C400.488 349.699 398.839 350.384 397.118 350.386Z" fill="#B48CBE"/>
<path d="M222.619 422.61H129.276C128.12 422.61 127.011 422.15 126.193 421.333C125.375 420.515 124.916 419.406 124.916 418.249C124.916 417.093 125.375 415.984 126.193 415.166C127.011 414.348 128.12 413.889 129.276 413.889H222.619C223.776 413.889 224.885 414.348 225.703 415.166C226.52 415.984 226.98 417.093 226.98 418.249C226.98 419.406 226.52 420.515 225.703 421.333C224.885 422.15 223.776 422.61 222.619 422.61Z" fill="#E6E6E6"/>
<path d="M192.692 403.863H159.203C158.047 403.863 156.937 403.403 156.12 402.586C155.302 401.768 154.842 400.659 154.842 399.502C154.842 398.346 155.302 397.237 156.12 396.419C156.937 395.601 158.047 395.142 159.203 395.142H192.692C193.849 395.142 194.958 395.601 195.776 396.419C196.594 397.237 197.053 398.346 197.053 399.502C197.053 400.659 196.594 401.768 195.776 402.586C194.958 403.403 193.849 403.863 192.692 403.863Z" fill="#E6E6E6"/>
<path d="M461.298 271.792H105.784V273.235H461.298V271.792Z" fill="#3F3D56"/>
</g>
<defs>
<radialGradient id="paint0_radial_13_753" cx="0" cy="0" r="1" gradientUnits="userSpaceOnUse" gradientTransform="translate(258 258) rotate(90) scale(258)">
<stop stop-color="#F7E3FF"/>
<stop offset="1" stop-color="#F9F9F9"/>
</radialGradient>
<clipPath id="clip0_13_753">
<rect width="409" height="373" fill="white" transform="translate(54 72)"/>
</clipPath>
</defs>
</svg>
