<svg width="516" height="516" viewBox="0 0 516 516" fill="none" xmlns="http://www.w3.org/2000/svg">
<circle cx="258" cy="258" r="258" fill="url(#paint0_radial_15_958)"/>
<g clip-path="url(#clip0_15_958)">
<path d="M261.775 322.473C299.604 322.473 330.27 291.806 330.27 253.978C330.27 216.149 299.604 185.483 261.775 185.483C223.946 185.483 193.28 216.149 193.28 253.978C193.28 291.806 223.946 322.473 261.775 322.473Z" fill="#A0616A"/>
<path d="M205.082 337.81L219.36 301.321L293.131 290.216L301.057 370.988L226.493 372.575L205.082 337.81Z" fill="#A0616A"/>
<path d="M330.933 266.615C330.044 270.177 328.248 278.656 325.441 278.698C323.149 278.732 320.954 241.944 323.244 235.859C325.875 228.869 318.962 220.026 313.754 215.486C304.391 207.324 283.606 224.85 262.471 216.911C261.91 216.701 262.022 216.724 255.348 214.062C234.811 205.868 233.732 205.631 232.555 205.515C222.6 204.53 210.45 212.676 205.489 222.609C200.332 232.934 204.641 241.79 199.791 266.77C199.226 269.681 198.338 273.831 196.942 273.892C194.389 274.004 191.896 260.369 191.244 256.798C188.509 241.836 185.872 227.411 191.244 211.213C191.83 209.446 195.441 202.888 202.64 189.845C213.011 171.054 218.227 161.624 219.734 159.929C230.545 147.772 250.223 136.682 266.744 141.41C275.095 143.8 273.597 147.643 283.839 151.382C302.09 158.046 317.951 149.896 320.877 155.656C322.426 158.706 318.091 161.222 318.028 167.052C317.92 177.056 330.572 179.947 337.971 189.845C341.949 195.166 348.757 195.223 330.933 266.615Z" fill="#2F2E41"/>
<path d="M415.79 398.093C413.029 401.195 410.166 404.233 407.199 407.2C367.347 447.052 314.359 469 258 469C209.288 469 163.098 452.604 125.728 422.422C125.705 422.406 125.689 422.39 125.665 422.366C120.707 418.369 115.908 414.117 111.276 409.627C111.363 408.929 111.458 408.239 111.561 407.556C112.212 402.956 112.934 398.569 113.743 394.532C120.366 361.438 207.519 326.695 209.787 325.79C209.819 325.782 209.835 325.774 209.835 325.774C209.835 325.774 221.051 367.118 269.113 366.586C301.85 366.229 295.504 325.774 295.504 325.774C295.504 325.774 295.901 325.853 296.646 326.012C306.102 328.019 371.75 342.44 397.649 362.121C405.541 368.117 411.205 380.889 415.274 396.118C415.449 396.769 415.615 397.435 415.79 398.093Z" fill="#B48CBE"/>
<path d="M407.199 108.801C367.347 68.9495 314.359 47 258 47C201.641 47 148.653 68.9495 108.801 108.801C68.9489 148.653 47 201.641 47 258C47 309.442 65.2841 358.074 98.7902 396.475C101.987 400.148 105.326 403.725 108.801 407.2C109.618 408.016 110.443 408.834 111.276 409.627C115.908 414.117 120.707 418.369 125.665 422.366C125.689 422.39 125.705 422.406 125.728 422.422C163.098 452.604 209.288 469 258 469C314.359 469 367.347 447.051 407.199 407.2C410.166 404.233 413.029 401.195 415.79 398.093C450.192 359.447 469 310.171 469 258C469 201.641 447.051 148.653 407.199 108.801ZM415.274 396.118C409.032 403.217 402.321 409.896 395.182 416.092C381.641 427.871 366.57 437.929 350.317 445.941C344.613 448.757 338.767 451.319 332.786 453.612C309.552 462.528 284.335 467.414 258 467.414C232.585 467.414 208.217 462.861 185.665 454.532C176.408 451.121 167.46 447.068 158.87 442.427C157.608 441.745 156.355 441.055 155.11 440.349C148.558 436.636 142.22 432.583 136.136 428.204C127.418 421.954 119.2 415.045 111.561 407.556C107.278 403.36 103.185 398.989 99.2742 394.445C67.6955 357.765 48.5865 310.076 48.5865 258C48.5865 142.53 142.529 48.5865 258 48.5865C373.471 48.5865 467.414 142.53 467.414 258C467.414 310.877 447.718 359.233 415.274 396.118Z" fill="#3F3D56"/>
</g>
<defs>
<radialGradient id="paint0_radial_15_958" cx="0" cy="0" r="1" gradientUnits="userSpaceOnUse" gradientTransform="translate(258 258) rotate(90) scale(258)">
<stop stop-color="#F7E3FF"/>
<stop offset="1" stop-color="#F9F9F9"/>
</radialGradient>
<clipPath id="clip0_15_958">
<rect width="422" height="422" fill="white" transform="translate(47 47)"/>
</clipPath>
</defs>
</svg>
