<svg width="516" height="516" viewBox="0 0 516 516" fill="none" xmlns="http://www.w3.org/2000/svg">
<circle cx="258" cy="258" r="258" fill="url(#paint0_radial_15_858)"/>
<g clip-path="url(#clip0_15_858)">
<path d="M68.6174 114.416C67.8805 114.415 67.1734 114.705 66.6511 115.221C66.1289 115.738 65.8342 116.44 65.8315 117.172L65.1467 412.819C65.1459 413.551 65.4374 414.254 65.9573 414.773C66.4772 415.293 67.183 415.586 67.92 415.588L307.549 416.136C308.286 416.137 308.994 415.847 309.516 415.33C310.038 414.813 310.333 414.111 310.336 413.379L311.02 117.732C311.021 117 310.729 116.297 310.209 115.778C309.689 115.259 308.984 114.966 308.247 114.963L68.6174 114.416Z" fill="#E6E6E6"/>
<path d="M74.7494 119.897C73.9949 119.896 73.2709 120.193 72.7362 120.722C72.2015 121.251 71.8996 121.969 71.8969 122.719L71.2407 407.319C71.24 408.069 71.5385 408.789 72.0708 409.32C72.603 409.852 73.3256 410.152 74.0801 410.154L301.215 410.672C301.969 410.673 302.693 410.376 303.228 409.847C303.763 409.318 304.064 408.6 304.067 407.85L304.723 123.25C304.724 122.5 304.426 121.78 303.893 121.248C303.361 120.717 302.638 120.417 301.883 120.415L74.7494 119.897Z" fill="white"/>
<path d="M269.861 243.98L106.404 243.606C105.852 243.611 105.305 243.507 104.794 243.3C104.284 243.094 103.819 242.788 103.428 242.402C103.037 242.015 102.727 241.556 102.516 241.049C102.304 240.543 102.196 240 102.197 239.452C102.199 238.904 102.309 238.362 102.523 237.856C102.737 237.351 103.049 236.893 103.442 236.508C103.835 236.124 104.301 235.82 104.812 235.616C105.324 235.412 105.871 235.31 106.423 235.317L269.881 235.692C270.432 235.687 270.979 235.791 271.49 235.998C272 236.204 272.465 236.51 272.856 236.896C273.247 237.282 273.557 237.742 273.769 238.248C273.98 238.755 274.088 239.298 274.087 239.846C274.085 240.394 273.975 240.936 273.761 241.442C273.548 241.947 273.235 242.405 272.842 242.79C272.449 243.174 271.984 243.478 271.472 243.682C270.96 243.886 270.413 243.987 269.861 243.98Z" fill="#E6E6E6"/>
<path d="M271.445 166.756L163.001 166.506C161.473 166.503 160.241 164.643 160.244 162.355C160.247 160.068 161.494 158.214 163.02 158.217L271.464 158.465C272.992 158.468 274.224 160.328 274.221 162.616C274.218 164.903 272.971 166.762 271.445 166.756Z" fill="#E6E6E6"/>
<path d="M271.389 190.519L162.945 190.271C161.417 190.267 160.185 188.407 160.188 186.12C160.191 183.832 161.438 181.978 162.964 181.981L271.408 182.229C272.936 182.233 274.169 184.092 274.165 186.38C274.162 188.667 272.917 190.522 271.389 190.519Z" fill="#E6E6E6"/>
<path d="M269.797 270.781L106.338 270.408C105.787 270.413 105.24 270.309 104.729 270.102C104.219 269.895 103.754 269.59 103.363 269.204C102.972 268.817 102.662 268.358 102.45 267.851C102.239 267.345 102.131 266.802 102.132 266.254C102.134 265.706 102.244 265.163 102.458 264.658C102.672 264.153 102.984 263.694 103.377 263.31C103.77 262.925 104.236 262.622 104.747 262.418C105.259 262.213 105.806 262.112 106.358 262.119L269.816 262.493C270.917 262.49 271.975 262.92 272.759 263.689C273.542 264.458 273.988 265.505 273.998 266.599C274.008 267.694 273.582 268.748 272.813 269.532C272.044 270.315 270.994 270.765 269.893 270.782H269.796L269.797 270.781Z" fill="#E6E6E6"/>
<path d="M269.74 297.583L106.281 297.209C105.729 297.214 105.182 297.11 104.672 296.903C104.161 296.696 103.696 296.391 103.305 296.004C102.914 295.618 102.604 295.158 102.393 294.652C102.181 294.146 102.073 293.603 102.075 293.055C102.076 292.507 102.187 291.964 102.4 291.459C102.614 290.953 102.926 290.495 103.319 290.111C103.712 289.726 104.178 289.423 104.689 289.218C105.201 289.014 105.749 288.913 106.3 288.92L269.758 289.294C270.307 289.286 270.853 289.385 271.364 289.587C271.875 289.789 272.34 290.09 272.734 290.471C273.127 290.853 273.441 291.308 273.657 291.81C273.873 292.313 273.987 292.853 273.992 293.399C273.997 293.946 273.894 294.488 273.687 294.994C273.481 295.501 273.176 295.961 272.79 296.35C272.404 296.739 271.944 297.048 271.437 297.26C270.93 297.471 270.386 297.581 269.836 297.583H269.739H269.74Z" fill="#E6E6E6"/>
<path d="M269.676 324.385L106.218 324.011C105.667 324.016 105.12 323.912 104.609 323.705C104.098 323.498 103.634 323.193 103.243 322.807C102.852 322.42 102.541 321.961 102.33 321.454C102.119 320.948 102.011 320.405 102.012 319.857C102.013 319.309 102.124 318.766 102.338 318.261C102.551 317.756 102.864 317.298 103.257 316.913C103.649 316.528 104.115 316.225 104.627 316.021C105.139 315.816 105.686 315.715 106.237 315.722L269.695 316.096C270.797 316.093 271.855 316.522 272.639 317.291C273.423 318.061 273.869 319.107 273.88 320.202C273.89 321.297 273.464 322.351 272.695 323.135C271.926 323.919 270.876 324.369 269.774 324.385H269.676Z" fill="#E6E6E6"/>
<path d="M189.196 350.028L106.156 349.654C105.604 349.658 105.057 349.554 104.547 349.348C104.036 349.141 103.572 348.835 103.18 348.449C102.789 348.063 102.479 347.603 102.268 347.097C102.056 346.591 101.948 346.048 101.95 345.499C101.951 344.951 102.062 344.409 102.275 343.904C102.489 343.398 102.801 342.94 103.194 342.556C103.587 342.171 104.053 341.868 104.564 341.663C105.076 341.459 105.624 341.357 106.175 341.365L189.215 341.739C189.765 341.731 190.311 341.831 190.822 342.033C191.332 342.235 191.798 342.535 192.191 342.917C192.585 343.298 192.899 343.753 193.115 344.256C193.331 344.758 193.444 345.298 193.45 345.845C193.455 346.391 193.351 346.933 193.145 347.439C192.939 347.946 192.633 348.407 192.247 348.796C191.861 349.184 191.401 349.494 190.894 349.705C190.388 349.917 189.844 350.027 189.294 350.028L189.196 350.028Z" fill="#E6E6E6"/>
<path d="M189.134 376.828L106.094 376.454C105.542 376.458 104.995 376.354 104.485 376.147C103.974 375.941 103.51 375.635 103.118 375.249C102.727 374.863 102.417 374.403 102.206 373.897C101.994 373.39 101.886 372.847 101.888 372.299C101.889 371.751 102 371.209 102.213 370.703C102.427 370.198 102.739 369.74 103.132 369.355C103.525 368.971 103.991 368.668 104.502 368.463C105.014 368.259 105.562 368.157 106.113 368.164L189.153 368.539C189.703 368.53 190.249 368.63 190.76 368.832C191.27 369.034 191.736 369.334 192.129 369.716C192.523 370.098 192.837 370.553 193.053 371.055C193.269 371.558 193.382 372.098 193.388 372.644C193.393 373.19 193.289 373.732 193.083 374.239C192.877 374.745 192.571 375.206 192.185 375.595C191.799 375.984 191.339 376.293 190.832 376.504C190.326 376.716 189.782 376.826 189.232 376.828H189.134Z" fill="#E6E6E6"/>
<path d="M299.508 131.755V105.298C299.553 103.332 299.208 101.377 298.492 99.544C297.776 97.7108 296.704 96.0359 295.336 94.6148C293.969 93.1937 292.333 92.0543 290.522 91.2618C288.712 90.4692 286.762 90.0391 284.784 89.9958C282.806 89.9526 280.839 90.2971 278.995 91.0097C277.151 91.7224 275.466 92.7891 274.037 94.1491C272.608 95.509 271.463 97.1355 270.667 98.9355C269.87 100.736 269.439 102.674 269.396 104.64H272.71C272.829 101.624 274.117 98.7705 276.304 96.6768C278.492 94.5832 281.409 93.4115 284.446 93.407H284.618C287.736 93.4574 290.706 94.7355 292.877 96.9608C295.048 99.186 296.241 102.176 296.196 105.276V131.969C296.168 134.028 295.326 135.994 293.852 137.442C292.378 138.889 290.391 139.703 288.318 139.705H288.222C286.13 139.676 284.135 138.823 282.676 137.333C281.216 135.843 280.412 133.838 280.44 131.758L280.458 105.48C280.456 104.962 280.557 104.448 280.755 103.969C280.953 103.49 281.244 103.054 281.611 102.686C281.978 102.319 282.415 102.027 282.896 101.827C283.377 101.627 283.892 101.524 284.414 101.522C284.935 101.52 285.451 101.621 285.933 101.817C286.416 102.014 286.854 102.303 287.224 102.668C287.594 103.033 287.887 103.467 288.088 103.945C288.289 104.423 288.394 104.936 288.395 105.454V113.088C288.395 113.525 288.57 113.944 288.881 114.253C289.192 114.562 289.613 114.735 290.052 114.735C290.492 114.735 290.913 114.562 291.224 114.253C291.535 113.944 291.709 113.525 291.709 113.088V105.427C291.708 104.477 291.518 103.536 291.15 102.659C290.783 101.781 290.245 100.984 289.568 100.313C288.891 99.6425 288.087 99.1108 287.203 98.7486C286.319 98.3864 285.372 98.2008 284.415 98.2024C283.459 98.2041 282.513 98.3929 281.63 98.7581C280.747 99.1233 279.945 99.6578 279.27 100.331C278.595 101.004 278.06 101.803 277.696 102.682C277.332 103.56 277.145 104.502 277.147 105.452L277.129 131.737C277.097 134.686 278.242 137.528 280.315 139.639C282.387 141.749 285.217 142.957 288.185 142.996H288.323C291.267 142.991 294.091 141.835 296.185 139.777C298.279 137.719 299.473 134.925 299.511 131.999C299.509 131.913 299.509 131.827 299.508 131.755Z" fill="#B48CBE"/>
<path d="M269.396 359.347C269.4 362.613 268.815 365.853 267.667 368.912C267.145 370.314 266.506 371.669 265.755 372.963C263.341 377.15 259.858 380.629 255.657 383.048C251.457 385.468 246.688 386.742 241.833 386.742C236.978 386.742 232.21 385.468 228.009 383.048C223.809 380.629 220.325 377.15 217.911 372.963C217.668 372.542 217.437 372.115 217.216 371.681C215.342 367.987 214.335 363.919 214.269 359.783C214.203 355.646 215.08 351.549 216.834 347.797C218.589 344.046 221.176 340.738 224.4 338.122C227.625 335.506 231.404 333.65 235.453 332.693C239.502 331.736 243.717 331.703 247.781 332.596C251.845 333.489 255.653 335.285 258.919 337.85C262.185 340.414 264.824 343.681 266.639 347.404C268.453 351.127 269.396 355.21 269.396 359.347Z" fill="#E4E4E4"/>
<path d="M145.856 173.424C145.86 176.689 145.274 179.929 144.126 182.989C143.605 184.39 142.965 185.746 142.214 187.04C139.8 191.227 136.317 194.705 132.117 197.125C127.916 199.544 123.148 200.818 118.293 200.818C113.438 200.818 108.669 199.544 104.469 197.125C100.269 194.705 96.7853 191.227 94.3713 187.04C94.1283 186.619 93.8965 186.192 93.676 185.758C91.8024 182.064 90.7947 177.996 90.7286 173.859C90.6625 169.723 91.5398 165.625 93.2945 161.874C95.0492 158.123 97.6358 154.815 100.86 152.199C104.085 149.583 107.864 147.727 111.913 146.77C115.962 145.813 120.177 145.779 124.241 146.672C128.305 147.565 132.113 149.362 135.379 151.926C138.645 154.491 141.284 157.757 143.099 161.48C144.913 165.204 145.856 169.287 145.856 173.424Z" fill="#E4E4E4"/>
<path d="M118.29 175.557C121.2 175.557 123.56 173.212 123.56 170.32C123.56 167.427 121.2 165.082 118.29 165.082C115.38 165.082 113.02 167.427 113.02 170.32C113.02 173.212 115.38 175.557 118.29 175.557Z" fill="#090814"/>
<path d="M93.6761 185.758C95.9978 183.264 99.1013 179.305 102.013 182.166C103.474 183.515 105.762 186.859 107.95 184.673L125.041 167.686C125.362 167.371 125.744 167.122 126.164 166.955C126.584 166.788 127.033 166.706 127.485 166.714C127.937 166.722 128.383 166.82 128.797 167.002C129.21 167.184 129.583 167.446 129.893 167.773L144.127 182.992C143.606 184.393 142.966 185.748 142.215 187.043H94.3713L93.6761 185.758Z" fill="#B48CBE"/>
<path d="M288.364 136.075C290.523 136.075 292.273 134.335 292.273 132.189C292.273 130.043 290.523 128.304 288.364 128.304C286.205 128.304 284.454 130.043 284.454 132.189C284.454 134.335 286.205 136.075 288.364 136.075Z" fill="#B48CBE"/>
<path d="M443.887 287.1C443.724 287.1 443.561 287.096 443.399 287.086L427.714 286.206L427.289 285.26L427.586 285.128L460.21 270.689L460.635 271.636L450.654 283.894C449.837 284.895 448.806 285.703 447.635 286.258C446.464 286.813 445.184 287.102 443.887 287.104L443.887 287.1Z" fill="#B48CBE"/>
<path d="M467 414.977H50V416.136H467V414.977Z" fill="#CCCCCC"/>
<path d="M412.169 254.083L369.629 248.871L371.96 211.802H412.167L412.169 254.083Z" fill="#FFB9B9"/>
<path d="M437.417 302.675C436.672 302.674 435.944 302.456 435.322 302.048C434.7 301.64 434.212 301.061 433.917 300.381L427.332 285.11L446.852 285.177L460.264 271.08L466.696 286.007C467.086 286.922 467.1 287.951 466.735 288.876C466.37 289.801 465.655 290.546 464.744 290.954L438.964 302.348C438.477 302.564 437.95 302.675 437.417 302.675Z" fill="#B48CBE"/>
<path opacity="0.242" d="M443.887 287.1C443.724 287.1 443.561 287.096 443.399 287.086L427.714 286.206L427.289 285.26L427.586 285.128L460.21 270.689L460.635 271.636L450.654 283.894C449.837 284.895 448.806 285.703 447.635 286.258C446.464 286.813 445.184 287.102 443.887 287.104L443.887 287.1Z" fill="#090814"/>
<path d="M417.399 157.704L375.865 158.221C375.085 158.221 374.338 157.912 373.787 157.364C373.235 156.816 372.925 156.074 372.924 155.299V141.657C372.924 135.886 375.231 130.352 379.336 126.271C383.442 122.19 389.01 119.898 394.816 119.898C400.622 119.898 406.19 122.19 410.296 126.271C414.401 130.352 416.708 135.886 416.708 141.657L420.34 154.781C420.34 155.556 420.03 156.299 419.478 156.847C418.927 157.395 418.179 157.703 417.399 157.704Z" fill="#090814"/>
<path d="M437.734 279.87C437.043 279.249 436.497 278.484 436.135 277.63C435.774 276.776 435.605 275.853 435.641 274.927C435.677 274.001 435.916 273.094 436.343 272.271C436.77 271.447 437.373 270.726 438.11 270.159L430.884 248.812L442.269 251.802L447.387 271.615C448.268 272.909 448.64 274.48 448.432 276.028C448.224 277.577 447.451 278.996 446.259 280.015C445.067 281.034 443.54 281.583 441.969 281.556C440.397 281.529 438.89 280.929 437.734 279.87Z" fill="#FFB6B6"/>
<path d="M388.518 417.158L378.631 415.784L380.114 382.447L394.71 384.474L388.518 417.158Z" fill="#FFB9B9"/>
<path d="M434.096 399.75L425.21 403.762L401.675 373.196L414.789 367.274L434.096 399.75Z" fill="#FFB9B9"/>
<path d="M394.634 158.077C403.007 158.077 409.795 151.331 409.795 143.009C409.795 134.686 403.007 127.94 394.634 127.94C386.261 127.94 379.473 134.686 379.473 143.009C379.473 151.331 386.261 158.077 394.634 158.077Z" fill="#FFB9B9"/>
<path d="M406.638 388.799L371.133 298.812C358.425 264.312 369.779 240.535 369.896 240.298L369.954 240.183L370.075 240.139C371.534 245.781 404.592 245.395 412.168 236.707C416.589 240.399 422.475 249.091 423.735 259.479C425.053 270.622 424.053 281.916 420.8 292.66L406.814 339.784L424.117 378.527L406.638 388.799Z" fill="#090814"/>
<path d="M389.516 332.982L376.698 397.595L393.773 400.795L404.515 344.867L389.516 332.982Z" fill="#090814"/>
<path d="M402.234 154.652C402.234 154.652 401.967 165.539 403.036 165.804C404.105 166.069 388.343 170.317 388.343 170.317L386.74 155.448L402.234 154.652Z" fill="#FFB9B9"/>
<path d="M370.793 222.807C373.524 223.531 400.523 234.59 413.332 223.386L423.384 174.059L411.341 170.283L407.139 165.204C406.684 164.653 406.11 164.212 405.459 163.912C404.809 163.611 404.099 163.461 403.382 163.471L388.442 163.67C387.781 163.68 387.13 163.825 386.528 164.097C385.926 164.368 385.387 164.761 384.946 165.249L380.16 170.554L369.352 173.054L370.793 222.807Z" fill="#B48CBE"/>
<path d="M418.801 177.906L422.074 173.574C422.074 173.574 428.07 175.14 431.116 183.681C434.163 192.221 446.645 260.455 446.645 260.455L433.203 266.658L415 206.352L418.801 177.906Z" fill="#B48CBE"/>
<path d="M311.086 259.165C311.213 258.247 311.54 257.368 312.046 256.59C312.552 255.812 313.223 255.153 314.013 254.66C314.802 254.168 315.691 253.853 316.616 253.739C317.541 253.625 318.48 253.713 319.366 253.998L333.029 236.029L336.963 247.061L323.385 262.435C322.806 263.887 321.711 265.076 320.307 265.778C318.903 266.479 317.289 266.644 315.772 266.241C314.254 265.838 312.938 264.894 312.074 263.59C311.209 262.286 310.857 260.712 311.084 259.167L311.086 259.165Z" fill="#FFB6B6"/>
<path d="M374.153 176.95L369.626 172.995C369.626 172.995 364.884 174.186 361.837 182.727C358.791 191.268 319.905 248.524 319.905 248.524L333.347 254.727L377.954 205.395L374.153 176.95Z" fill="#B48CBE"/>
<path d="M410.432 142.015H389.242C388.844 142.014 388.46 141.869 388.161 141.608C387.863 141.346 387.671 140.985 387.621 140.592L387.347 138.411C387.32 138.201 387.225 138.006 387.077 137.854C386.929 137.703 386.736 137.603 386.526 137.57C386.316 137.538 386.101 137.574 385.913 137.673C385.725 137.773 385.575 137.93 385.486 138.121L384.096 141.078C383.963 141.357 383.754 141.593 383.492 141.759C383.23 141.925 382.926 142.013 382.615 142.014H379.397C379.183 142.014 378.97 141.973 378.772 141.892C378.574 141.81 378.394 141.691 378.242 141.541C378.091 141.391 377.97 141.212 377.888 141.015C377.805 140.819 377.763 140.608 377.763 140.395C377.763 140.342 377.765 140.289 377.77 140.235L379.04 127.059C379.067 126.778 379.167 126.508 379.33 126.276C379.494 126.044 379.715 125.859 379.972 125.737C389.676 121.234 399.517 121.24 409.222 125.755C409.468 125.87 409.682 126.044 409.843 126.262C410.004 126.479 410.109 126.734 410.146 127.001L412.048 140.16C412.081 140.39 412.065 140.625 411.999 140.848C411.933 141.071 411.82 141.277 411.667 141.453C411.514 141.629 411.324 141.77 411.111 141.867C410.899 141.963 410.667 142.014 410.433 142.014L410.432 142.015Z" fill="#2F2E41"/>
<path d="M390.406 410.066C390.406 410.066 394.446 422.583 390.449 424.401C386.453 426.22 381.323 424.113 377.003 425.56C372.682 427.008 361.427 422.03 361.427 422.03C361.427 422.03 360.294 418.106 368.068 417.599C368.068 417.599 376.888 411.92 376.986 410.531C377.084 409.142 381.984 409.479 381.984 409.479L390.406 410.066Z" fill="#090814"/>
<path d="M436.156 399.56C436.156 399.56 442.32 411.184 438.704 413.664C435.088 416.144 429.671 414.956 425.671 417.127C421.671 419.298 409.723 416.342 409.723 416.342C409.723 416.342 407.921 412.675 415.485 410.834C415.485 410.834 423.174 403.72 423.027 402.336C422.881 400.951 427.763 400.437 427.763 400.437L436.156 399.56Z" fill="#090814"/>
</g>
<defs>
<radialGradient id="paint0_radial_15_858" cx="0" cy="0" r="1" gradientUnits="userSpaceOnUse" gradientTransform="translate(258 258) rotate(90) scale(258)">
<stop stop-color="#F7E3FF"/>
<stop offset="1" stop-color="#F9F9F9"/>
</radialGradient>
<clipPath id="clip0_15_858">
<rect width="417" height="337" fill="white" transform="translate(50 90)"/>
</clipPath>
</defs>
</svg>
