<svg width="516" height="516" viewBox="0 0 516 516" fill="none" xmlns="http://www.w3.org/2000/svg">
<circle cx="258" cy="258" r="258" fill="url(#paint0_radial_11_523)"/>
<g clip-path="url(#clip0_11_523)">
<path d="M72.229 401.955C76.5159 411.756 86.0391 417.754 95.7901 422.629C97.1517 423.31 98.511 423.972 99.8682 424.614C99.8771 424.616 99.8869 424.623 99.896 424.626C99.9613 424.656 100.027 424.687 100.088 424.719C100.368 424.851 100.648 424.983 100.926 425.113L100.794 425.195L100.381 425.447C100.524 425.366 100.665 425.287 100.808 425.205C100.851 425.18 100.895 425.157 100.938 425.133C105.859 422.349 110.852 419.398 114.317 414.945C117.91 410.321 119.479 403.606 116.532 398.545C116.145 397.882 115.685 397.265 115.161 396.704C114.945 396.468 114.717 396.245 114.481 396.028C113.047 394.686 111.281 393.749 109.365 393.314C107.449 392.88 105.452 392.963 103.579 393.556C101.706 394.149 100.024 395.23 98.7075 396.688C97.3909 398.146 96.4864 399.928 96.0871 401.851C94.6197 395.819 98.9888 390.025 103.346 385.6C107.705 381.177 112.682 376.33 112.816 370.12C112.813 368.432 112.452 366.763 111.758 365.223C111.063 363.684 110.051 362.309 108.786 361.189C108.709 361.118 108.633 361.047 108.554 360.978C105.536 358.256 101.602 356.771 97.5373 356.822C89.983 357.034 83.2667 361.934 78.5387 367.83C70.9286 377.315 67.3554 390.812 72.229 401.955Z" fill="#F2F2F2"/>
<path d="M84.4715 386.775C83.3358 389.188 82.5583 391.755 82.1634 394.392C81.8456 396.745 81.8816 399.133 82.27 401.475C83.1103 406.29 85.0949 410.832 88.0568 414.72C90.2909 417.672 92.8893 420.329 95.7901 422.629C97.1516 423.31 98.511 423.972 99.8682 424.614C99.8771 424.616 99.8869 424.623 99.896 424.626C99.9613 424.656 100.027 424.687 100.088 424.719C100.368 424.851 100.648 424.983 100.926 425.113L100.794 425.195L100.381 425.447C100.524 425.366 100.665 425.287 100.808 425.205C100.851 425.18 100.895 425.157 100.938 425.133C99.9663 421.375 99.9098 417.44 100.773 413.656C101.636 409.873 103.394 406.351 105.899 403.387C108.417 400.461 111.59 398.171 115.161 396.704C114.945 396.468 114.717 396.245 114.481 396.028C113.105 396.618 111.783 397.328 110.533 398.15C106.059 401.076 102.646 405.363 100.8 410.378C99.1498 414.928 98.8324 419.854 99.8852 424.579C99.646 424.413 99.406 424.244 99.1726 424.075C94.6586 420.986 90.7515 417.093 87.6461 412.591C85.0392 408.733 83.4213 404.293 82.9349 399.663C82.4628 394.606 83.8511 389.681 86.2173 385.241C88.8263 380.492 92.0726 376.122 95.866 372.253C99.6785 368.274 103.964 364.777 108.626 361.839C108.731 361.772 108.806 361.667 108.836 361.546C108.866 361.425 108.848 361.297 108.786 361.189C108.74 361.091 108.656 361.015 108.554 360.978C108.502 360.963 108.447 360.96 108.394 360.97C108.34 360.979 108.29 361 108.246 361.032C107.67 361.395 107.1 361.762 106.535 362.14C101.835 365.29 97.5448 369.011 93.7626 373.219C90.0038 377.247 86.8718 381.816 84.4715 386.775Z" fill="white"/>
<path d="M237.06 318.606C233.922 318.606 230.854 317.675 228.245 315.933C225.636 314.19 223.603 311.713 222.402 308.815C221.201 305.916 220.887 302.727 221.499 299.651C222.111 296.574 223.622 293.748 225.841 291.53C228.06 289.312 230.887 287.801 233.965 287.189C237.042 286.577 240.233 286.891 243.132 288.092C246.031 289.292 248.509 291.325 250.252 293.933C251.996 296.542 252.926 299.608 252.926 302.745C252.921 306.95 251.248 310.982 248.274 313.955C245.299 316.928 241.266 318.601 237.06 318.606ZM237.06 288.114C234.165 288.114 231.335 288.972 228.929 290.579C226.522 292.187 224.646 294.472 223.538 297.146C222.43 299.819 222.14 302.761 222.705 305.599C223.27 308.438 224.664 311.045 226.711 313.091C228.758 315.137 231.365 316.531 234.205 317.095C237.044 317.66 239.987 317.37 242.661 316.263C245.335 315.155 247.621 313.28 249.23 310.874C250.838 308.468 251.696 305.639 251.696 302.745C251.692 298.866 250.148 295.147 247.405 292.404C244.661 289.661 240.94 288.118 237.06 288.114Z" fill="#B48CBE"/>
<path d="M235.549 308.561C235.206 308.561 234.872 308.45 234.597 308.244L234.58 308.232L230.996 305.491C230.83 305.364 230.691 305.205 230.586 305.024C230.481 304.843 230.413 304.643 230.386 304.436C230.359 304.228 230.372 304.018 230.426 303.816C230.48 303.614 230.574 303.424 230.701 303.258C230.828 303.093 230.987 302.953 231.168 302.849C231.349 302.744 231.549 302.676 231.756 302.649C231.964 302.621 232.175 302.635 232.377 302.689C232.579 302.743 232.768 302.836 232.934 302.964L235.256 304.743L240.742 297.589C240.869 297.423 241.028 297.284 241.209 297.179C241.39 297.074 241.589 297.006 241.797 296.979C242.004 296.952 242.215 296.965 242.417 297.019C242.619 297.073 242.808 297.167 242.974 297.294L242.94 297.341L242.975 297.294C243.31 297.551 243.529 297.931 243.584 298.349C243.639 298.768 243.526 299.191 243.27 299.526L236.817 307.938C236.668 308.132 236.476 308.288 236.256 308.396C236.036 308.504 235.795 308.559 235.55 308.559L235.549 308.561Z" fill="#B48CBE"/>
<path d="M180.905 223.251C189.246 223.251 196.007 216.492 196.007 208.154C196.007 199.816 189.246 193.057 180.905 193.057C172.564 193.057 165.803 199.816 165.803 208.154C165.803 216.492 172.564 223.251 180.905 223.251Z" fill="#A0616A"/>
<path d="M175.452 297.486C175.262 297.486 175.071 297.478 174.879 297.461C173.929 297.382 173.007 297.103 172.173 296.642C171.338 296.182 170.61 295.55 170.037 294.789C169.464 294.028 169.058 293.154 168.846 292.225C168.634 291.296 168.621 290.333 168.807 289.399C168.851 289.182 168.907 288.967 168.973 288.756L146.684 262.403C145.957 261.537 145.53 260.461 145.464 259.333C145.398 258.205 145.697 257.087 146.318 256.143L146.358 256.093L166.422 236.317C166.967 235.779 167.614 235.355 168.324 235.068C169.035 234.782 169.795 234.639 170.561 234.648C171.327 234.657 172.084 234.818 172.787 235.12C173.491 235.423 174.128 235.863 174.66 236.413C175.193 236.963 175.612 237.613 175.892 238.326C176.172 239.039 176.308 239.8 176.292 240.566C176.276 241.331 176.109 242.086 175.799 242.787C175.49 243.487 175.045 244.12 174.489 244.647L159.958 258.457L175.866 283.981C176.168 283.997 176.467 284.033 176.764 284.091C178.409 284.42 179.874 285.347 180.873 286.695C181.873 288.042 182.336 289.713 182.172 291.382C182.009 293.051 181.231 294.601 179.989 295.729C178.747 296.857 177.13 297.483 175.452 297.486Z" fill="#A0616A"/>
<path d="M205.778 418.268L213.317 418.268L216.903 389.201L205.777 389.202L205.778 418.268Z" fill="#A0616A"/>
<path d="M203.855 415.808L218.701 415.807H218.702C219.944 415.807 221.174 416.052 222.322 416.527C223.47 417.002 224.513 417.699 225.392 418.577C226.27 419.456 226.967 420.498 227.443 421.646C227.918 422.793 228.163 424.023 228.163 425.265V425.572L203.856 425.573L203.855 415.808Z" fill="#2F2E41"/>
<path d="M130.851 407.849L137.328 411.704L155.286 388.563L145.726 382.874L130.851 407.849Z" fill="#A0616A"/>
<path d="M130.458 404.752L143.214 412.344C144.282 412.979 145.214 413.819 145.957 414.814C146.7 415.81 147.24 416.942 147.545 418.146C147.85 419.35 147.915 420.602 147.737 421.831C147.558 423.06 147.139 424.242 146.503 425.309L146.346 425.573L125.461 413.142L130.458 404.752Z" fill="#2F2E41"/>
<path d="M215.095 408.002H206.654C205.971 408.003 205.311 407.751 204.803 407.294C204.295 406.837 203.974 406.208 203.903 405.528L195.393 325.56C195.371 325.359 195.284 325.171 195.145 325.024C195.005 324.877 194.822 324.78 194.622 324.748C194.422 324.716 194.217 324.75 194.038 324.846C193.86 324.942 193.718 325.094 193.635 325.278L178.283 359.262L151.102 403.568C150.75 404.136 150.206 404.558 149.568 404.757C148.93 404.957 148.242 404.92 147.629 404.653L136.771 399.877C136.412 399.719 136.09 399.487 135.828 399.195C135.566 398.903 135.368 398.559 135.249 398.186C135.13 397.812 135.091 397.418 135.136 397.028C135.181 396.638 135.308 396.263 135.51 395.926L160.496 354.103L168.159 318.864C165.749 303.583 176.081 280.863 176.186 280.635L176.237 280.524L207.305 268.101L207.447 268.275C225.908 290.802 222.904 346.024 217.854 405.468C217.791 406.157 217.474 406.799 216.964 407.267C216.454 407.736 215.788 407.998 215.095 408.002Z" fill="#2F2E41"/>
<path d="M175.09 284.247L174.958 283.969C174.895 283.836 168.566 270.493 163.688 256.232C162.75 253.474 162.396 250.552 162.647 247.65C162.898 244.748 163.749 241.93 165.147 239.375C166.562 236.792 168.499 234.532 170.834 232.737C173.169 230.942 175.851 229.652 178.711 228.947C183.676 227.758 188.904 228.391 193.441 230.731C197.978 233.071 201.524 236.963 203.431 241.698C207.301 251.371 208.674 260.393 207.514 268.513L207.491 268.676L207.343 268.747L175.09 284.247Z" fill="#B48CBE"/>
<path d="M228.23 305.894C227.589 306.696 226.778 307.347 225.855 307.798C224.933 308.25 223.922 308.492 222.895 308.507C221.958 308.52 221.028 308.343 220.161 307.988C219.294 307.632 218.508 307.106 217.85 306.439C217.192 305.772 216.676 304.979 216.332 304.108C215.988 303.237 215.823 302.305 215.849 301.369C215.859 301.027 215.896 300.686 215.959 300.349L186.221 244.981C185.832 244.359 185.57 243.667 185.45 242.943C185.33 242.22 185.354 241.48 185.521 240.766C185.687 240.051 185.994 239.377 186.422 238.782C186.851 238.187 187.393 237.682 188.017 237.297C188.641 236.911 189.335 236.653 190.06 236.537C190.784 236.421 191.524 236.449 192.238 236.62C192.951 236.791 193.624 237.101 194.217 237.533C194.81 237.965 195.312 238.509 195.694 239.136L224.745 294.891C225.841 295.21 226.842 295.794 227.659 296.591C228.475 297.388 229.083 298.374 229.427 299.462C229.772 300.55 229.843 301.706 229.634 302.828C229.425 303.95 228.943 305.003 228.23 305.894Z" fill="#A0616A"/>
<path d="M199.216 199.626H175.235V189.176C180.499 187.086 185.649 185.308 188.763 189.176C191.535 189.176 194.194 190.277 196.154 192.237C198.115 194.196 199.216 196.854 199.216 199.626Z" fill="#2F2E41"/>
<path d="M173.908 187.332C159.572 187.332 155.559 205.296 155.559 215.43C155.559 221.082 158.116 223.103 162.134 223.787L163.553 216.222L166.876 224.112C168.005 224.118 169.19 224.096 170.419 224.073L171.546 221.754L174.059 224.032C184.122 224.047 192.256 225.513 192.256 215.43C192.256 205.296 188.737 187.332 173.908 187.332Z" fill="#2F2E41"/>
<path d="M303.962 188.734C306.678 188.734 308.881 186.532 308.881 183.817C308.881 181.101 306.678 178.899 303.962 178.899C301.245 178.899 299.042 181.101 299.042 183.817C299.042 186.532 301.245 188.734 303.962 188.734Z" fill="#CCCCCC"/>
<path d="M430.134 243.615C426.996 243.615 423.928 242.684 421.319 240.942C418.71 239.199 416.677 236.722 415.476 233.824C414.275 230.925 413.961 227.736 414.573 224.66C415.185 221.583 416.696 218.757 418.915 216.539C421.134 214.321 423.961 212.81 427.039 212.198C430.116 211.586 433.307 211.9 436.206 213.101C439.105 214.301 441.583 216.334 443.326 218.942C445.069 221.551 446 224.617 446 227.754C445.995 231.959 444.322 235.991 441.348 238.964C438.373 241.937 434.34 243.61 430.134 243.615ZM430.134 213.123C427.239 213.123 424.409 213.981 422.003 215.588C419.596 217.196 417.72 219.481 416.612 222.155C415.504 224.828 415.214 227.77 415.779 230.608C416.344 233.447 417.738 236.054 419.785 238.1C421.832 240.146 424.439 241.54 427.279 242.104C430.118 242.669 433.061 242.379 435.735 241.272C438.409 240.164 440.695 238.289 442.304 235.883C443.912 233.477 444.77 230.648 444.77 227.754C444.766 223.875 443.222 220.156 440.479 217.413C437.735 214.67 434.014 213.127 430.134 213.123Z" fill="#B48CBE"/>
<path d="M428.623 233.57C428.28 233.57 427.946 233.46 427.671 233.254L427.654 233.241L424.07 230.5C423.735 230.243 423.515 229.864 423.46 229.445C423.405 229.026 423.518 228.603 423.775 228.268C424.032 227.933 424.412 227.713 424.83 227.658C425.249 227.603 425.673 227.716 426.008 227.973L428.33 229.753L433.816 222.598C433.943 222.432 434.101 222.293 434.282 222.188C434.463 222.084 434.663 222.016 434.871 221.988C435.078 221.961 435.289 221.975 435.491 222.029C435.693 222.083 435.882 222.176 436.048 222.303L436.014 222.351L436.049 222.303C436.384 222.561 436.603 222.94 436.658 223.359C436.713 223.777 436.6 224.2 436.344 224.535L429.891 232.947C429.742 233.141 429.55 233.298 429.33 233.405C429.11 233.513 428.869 233.569 428.624 233.568L428.623 233.57Z" fill="#B48CBE"/>
<path d="M428.168 184.431H319.949C319.785 184.431 319.629 184.366 319.514 184.251C319.398 184.136 319.334 183.98 319.334 183.817C319.334 183.654 319.398 183.497 319.514 183.382C319.629 183.267 319.785 183.202 319.949 183.202H428.168C428.331 183.202 428.488 183.267 428.603 183.382C428.718 183.497 428.783 183.654 428.783 183.817C428.783 183.98 428.718 184.136 428.603 184.251C428.488 184.366 428.331 184.431 428.168 184.431Z" fill="#3F3D56"/>
<path d="M428.168 196.11H319.949C319.785 196.11 319.629 196.045 319.514 195.93C319.398 195.815 319.334 195.659 319.334 195.496C319.334 195.333 319.398 195.176 319.514 195.061C319.629 194.946 319.785 194.881 319.949 194.881H428.168C428.331 194.881 428.488 194.946 428.603 195.061C428.718 195.176 428.783 195.333 428.783 195.496C428.783 195.659 428.718 195.815 428.603 195.93C428.488 196.045 428.331 196.11 428.168 196.11Z" fill="#3F3D56"/>
<path d="M428.168 207.789H319.949C319.785 207.789 319.629 207.724 319.514 207.609C319.398 207.494 319.334 207.337 319.334 207.174C319.334 207.011 319.398 206.855 319.514 206.74C319.629 206.624 319.785 206.56 319.949 206.56H428.168C428.331 206.56 428.488 206.624 428.603 206.74C428.718 206.855 428.783 207.011 428.783 207.174C428.783 207.337 428.718 207.494 428.603 207.609C428.488 207.724 428.331 207.789 428.168 207.789Z" fill="#3F3D56"/>
<path d="M403.573 219.468H319.949C319.785 219.468 319.629 219.403 319.514 219.288C319.398 219.173 319.334 219.016 319.334 218.853C319.334 218.69 319.398 218.534 319.514 218.419C319.629 218.303 319.785 218.239 319.949 218.239H403.573C403.736 218.239 403.892 218.303 404.008 218.419C404.123 218.534 404.188 218.69 404.188 218.853C404.188 219.016 404.123 219.173 404.008 219.288C403.892 219.403 403.736 219.468 403.573 219.468Z" fill="#3F3D56"/>
<path d="M402.958 231.147H319.949C319.785 231.147 319.629 231.082 319.514 230.967C319.398 230.852 319.334 230.695 319.334 230.532C319.334 230.369 319.398 230.213 319.514 230.098C319.629 229.982 319.785 229.917 319.949 229.917H402.958C403.121 229.917 403.278 229.982 403.393 230.098C403.508 230.213 403.573 230.369 403.573 230.532C403.573 230.695 403.508 230.852 403.393 230.967C403.278 231.082 403.121 231.147 402.958 231.147Z" fill="#3F3D56"/>
<path d="M303.962 100.835C306.678 100.835 308.881 98.6333 308.881 95.9174C308.881 93.2016 306.678 91 303.962 91C301.245 91 299.042 93.2016 299.042 95.9174C299.042 98.6333 301.245 100.835 303.962 100.835Z" fill="#CCCCCC"/>
<path d="M430.134 155.716C426.996 155.716 423.928 154.785 421.319 153.043C418.71 151.3 416.677 148.823 415.476 145.924C414.275 143.026 413.961 139.837 414.573 136.761C415.185 133.684 416.696 130.858 418.915 128.64C421.134 126.421 423.961 124.911 427.039 124.299C430.116 123.687 433.307 124.001 436.206 125.201C439.105 126.402 441.583 128.435 443.326 131.043C445.069 133.651 446 136.718 446 139.855C445.995 144.06 444.322 148.091 441.348 151.065C438.373 154.038 434.34 155.711 430.134 155.716ZM430.134 125.224C427.239 125.224 424.409 126.082 422.003 127.689C419.596 129.297 417.72 131.582 416.612 134.256C415.504 136.929 415.214 139.871 415.779 142.709C416.344 145.547 417.738 148.155 419.785 150.201C421.832 152.247 424.439 153.64 427.279 154.205C430.118 154.77 433.061 154.48 435.735 153.372C438.409 152.265 440.695 150.39 442.304 147.984C443.912 145.577 444.77 142.749 444.77 139.855C444.766 135.976 443.222 132.257 440.479 129.514C437.735 126.771 434.014 125.228 430.134 125.224Z" fill="#B48CBE"/>
<path d="M428.623 145.671C428.28 145.671 427.946 145.56 427.671 145.355L427.654 145.342L424.07 142.601C423.735 142.344 423.515 141.964 423.46 141.546C423.405 141.127 423.518 140.704 423.775 140.369C424.032 140.033 424.412 139.814 424.83 139.759C425.249 139.703 425.673 139.817 426.008 140.074L428.33 141.853L433.816 134.699C433.943 134.533 434.101 134.394 434.282 134.289C434.463 134.184 434.663 134.117 434.871 134.089C435.078 134.062 435.289 134.075 435.491 134.129C435.693 134.184 435.882 134.277 436.048 134.404L436.014 134.452L436.049 134.404C436.384 134.661 436.603 135.041 436.658 135.459C436.713 135.878 436.6 136.301 436.344 136.636L429.891 145.048C429.742 145.242 429.55 145.399 429.33 145.506C429.11 145.614 428.869 145.67 428.624 145.669L428.623 145.671Z" fill="#B48CBE"/>
<path d="M428.168 96.5321H319.949C319.785 96.5321 319.629 96.4673 319.514 96.3521C319.398 96.2368 319.334 96.0804 319.334 95.9174C319.334 95.7544 319.398 95.598 319.514 95.4828C319.629 95.3675 319.785 95.3027 319.949 95.3027H428.168C428.331 95.3027 428.488 95.3675 428.603 95.4828C428.718 95.598 428.783 95.7544 428.783 95.9174C428.783 96.0804 428.718 96.2368 428.603 96.3521C428.488 96.4673 428.331 96.5321 428.168 96.5321Z" fill="#3F3D56"/>
<path d="M428.168 108.211H319.949C319.785 108.211 319.629 108.146 319.514 108.031C319.398 107.916 319.334 107.759 319.334 107.596C319.334 107.433 319.398 107.277 319.514 107.162C319.629 107.046 319.785 106.982 319.949 106.982H428.168C428.331 106.982 428.488 107.046 428.603 107.162C428.718 107.277 428.783 107.433 428.783 107.596C428.783 107.759 428.718 107.916 428.603 108.031C428.488 108.146 428.331 108.211 428.168 108.211Z" fill="#3F3D56"/>
<path d="M428.168 119.89H319.949C319.785 119.89 319.629 119.825 319.514 119.71C319.398 119.595 319.334 119.438 319.334 119.275C319.334 119.112 319.398 118.956 319.514 118.841C319.629 118.725 319.785 118.661 319.949 118.661H428.168C428.331 118.661 428.488 118.725 428.603 118.841C428.718 118.956 428.783 119.112 428.783 119.275C428.783 119.438 428.718 119.595 428.603 119.71C428.488 119.825 428.331 119.89 428.168 119.89Z" fill="#3F3D56"/>
<path d="M403.573 131.569H319.949C319.785 131.569 319.629 131.504 319.514 131.389C319.398 131.273 319.334 131.117 319.334 130.954C319.334 130.791 319.398 130.635 319.514 130.519C319.629 130.404 319.785 130.339 319.949 130.339H403.573C403.736 130.339 403.892 130.404 404.008 130.519C404.123 130.635 404.188 130.791 404.188 130.954C404.188 131.117 404.123 131.273 404.008 131.389C403.892 131.504 403.736 131.569 403.573 131.569Z" fill="#3F3D56"/>
<path d="M402.958 143.248H319.949C319.785 143.248 319.629 143.183 319.514 143.068C319.398 142.952 319.334 142.796 319.334 142.633C319.334 142.47 319.398 142.314 319.514 142.198C319.629 142.083 319.785 142.018 319.949 142.018H402.958C403.121 142.018 403.278 142.083 403.393 142.198C403.508 142.314 403.573 142.47 403.573 142.633C403.573 142.796 403.508 142.952 403.393 143.068C403.278 143.183 403.121 143.248 402.958 143.248Z" fill="#3F3D56"/>
<path d="M303.962 276.018C306.678 276.018 308.881 273.817 308.881 271.101C308.881 268.385 306.678 266.184 303.962 266.184C301.245 266.184 299.042 268.385 299.042 271.101C299.042 273.817 301.245 276.018 303.962 276.018Z" fill="#CCCCCC"/>
<path d="M430.134 330.899C426.996 330.899 423.928 329.969 421.319 328.226C418.71 326.483 416.677 324.006 415.476 321.108C414.275 318.21 413.961 315.021 414.573 311.944C415.185 308.868 416.696 306.041 418.915 303.823C421.134 301.605 423.961 300.094 427.039 299.482C430.116 298.871 433.307 299.185 436.206 300.385C439.105 301.586 441.583 303.618 443.326 306.227C445.069 308.835 446 311.901 446 315.038C445.995 319.244 444.322 323.275 441.348 326.248C438.373 329.222 434.34 330.894 430.134 330.899ZM430.134 300.407C427.239 300.407 424.409 301.265 422.003 302.873C419.596 304.481 417.72 306.766 416.612 309.439C415.504 312.113 415.214 315.055 415.779 317.893C416.344 320.731 417.738 323.338 419.785 325.384C421.832 327.431 424.439 328.824 427.279 329.389C430.118 329.953 433.061 329.663 435.735 328.556C438.409 327.449 440.695 325.573 442.304 323.167C443.912 320.761 444.77 317.932 444.77 315.038C444.766 311.159 443.222 307.44 440.479 304.697C437.735 301.954 434.014 300.411 430.134 300.407Z" fill="#E6E6E6"/>
<path d="M428.623 320.854C428.28 320.855 427.946 320.744 427.671 320.538L427.654 320.525L424.07 317.785C423.904 317.657 423.765 317.499 423.66 317.318C423.555 317.137 423.487 316.937 423.46 316.729C423.433 316.522 423.446 316.311 423.5 316.109C423.554 315.907 423.648 315.718 423.775 315.552C423.902 315.386 424.061 315.247 424.242 315.142C424.423 315.038 424.623 314.97 424.83 314.942C425.038 314.915 425.249 314.929 425.451 314.983C425.653 315.037 425.842 315.13 426.008 315.257L428.33 317.037L433.816 309.882C433.943 309.716 434.101 309.577 434.283 309.473C434.464 309.368 434.663 309.3 434.871 309.273C435.078 309.245 435.289 309.259 435.491 309.313C435.693 309.367 435.882 309.46 436.048 309.588L436.014 309.635L436.049 309.588C436.384 309.845 436.603 310.225 436.658 310.643C436.713 311.061 436.6 311.485 436.344 311.82L429.891 320.231C429.742 320.425 429.55 320.582 429.33 320.69C429.11 320.798 428.869 320.853 428.624 320.852L428.623 320.854Z" fill="#E6E6E6"/>
<path d="M428.168 271.716H319.949C319.785 271.716 319.629 271.651 319.514 271.536C319.398 271.42 319.334 271.264 319.334 271.101C319.334 270.938 319.398 270.782 319.514 270.666C319.629 270.551 319.785 270.486 319.949 270.486H428.168C428.331 270.486 428.488 270.551 428.603 270.666C428.718 270.782 428.783 270.938 428.783 271.101C428.783 271.264 428.718 271.42 428.603 271.536C428.488 271.651 428.331 271.716 428.168 271.716Z" fill="#3F3D56"/>
<path d="M428.168 283.394H319.949C319.785 283.394 319.629 283.33 319.514 283.214C319.398 283.099 319.334 282.943 319.334 282.78C319.334 282.617 319.398 282.46 319.514 282.345C319.629 282.23 319.785 282.165 319.949 282.165H428.168C428.331 282.165 428.488 282.23 428.603 282.345C428.718 282.46 428.783 282.617 428.783 282.78C428.783 282.943 428.718 283.099 428.603 283.214C428.488 283.33 428.331 283.394 428.168 283.394Z" fill="#3F3D56"/>
<path d="M428.168 295.073H319.949C319.785 295.073 319.629 295.009 319.514 294.893C319.398 294.778 319.334 294.622 319.334 294.459C319.334 294.296 319.398 294.139 319.514 294.024C319.629 293.909 319.785 293.844 319.949 293.844H428.168C428.331 293.844 428.488 293.909 428.603 294.024C428.718 294.139 428.783 294.296 428.783 294.459C428.783 294.622 428.718 294.778 428.603 294.893C428.488 295.009 428.331 295.073 428.168 295.073Z" fill="#3F3D56"/>
<path d="M403.573 306.752H319.949C319.785 306.752 319.629 306.688 319.514 306.572C319.398 306.457 319.334 306.301 319.334 306.138C319.334 305.975 319.398 305.818 319.514 305.703C319.629 305.588 319.785 305.523 319.949 305.523H403.573C403.736 305.523 403.892 305.588 404.008 305.703C404.123 305.818 404.188 305.975 404.188 306.138C404.188 306.301 404.123 306.457 404.008 306.572C403.892 306.688 403.736 306.752 403.573 306.752Z" fill="#3F3D56"/>
<path d="M402.958 318.431H319.949C319.785 318.431 319.629 318.366 319.514 318.251C319.398 318.136 319.334 317.98 319.334 317.817C319.334 317.654 319.398 317.497 319.514 317.382C319.629 317.267 319.785 317.202 319.949 317.202H402.958C403.121 317.202 403.278 317.267 403.393 317.382C403.508 317.497 403.573 317.654 403.573 317.817C403.573 317.98 403.508 318.136 403.393 318.251C403.278 318.366 403.121 318.431 402.958 318.431Z" fill="#3F3D56"/>
<path d="M307.508 426H73.2367C73.0736 426 72.9172 425.935 72.8019 425.82C72.6866 425.705 72.6218 425.548 72.6218 425.385C72.6218 425.222 72.6866 425.066 72.8019 424.951C72.9172 424.835 73.0736 424.771 73.2367 424.771H307.508C307.671 424.771 307.827 424.835 307.943 424.951C308.058 425.066 308.123 425.222 308.123 425.385C308.123 425.548 308.058 425.705 307.943 425.82C307.827 425.935 307.671 426 307.508 426Z" fill="#3F3D56"/>
</g>
<defs>
<radialGradient id="paint0_radial_11_523" cx="0" cy="0" r="1" gradientUnits="userSpaceOnUse" gradientTransform="translate(258 258) rotate(90) scale(258)">
<stop stop-color="#F7E3FF"/>
<stop offset="1" stop-color="#F9F9F9"/>
</radialGradient>
<clipPath id="clip0_11_523">
<rect width="376" height="335" fill="white" transform="translate(70 91)"/>
</clipPath>
</defs>
</svg>
